<svg width="635" height="223" viewBox="0 0 635 223" fill="none" xmlns="http://www.w3.org/2000/svg">
<path d="M277.41 204.14C277.148 204.281 276.925 204.487 276.763 204.736C276.6 204.986 276.503 205.273 276.48 205.57V207.25C276.48 207.75 276.74 208 277.26 208H285.26C285.88 208 286.19 207.727 286.19 207.18V205.57C286.174 205.272 286.08 204.984 285.919 204.733C285.758 204.483 285.534 204.278 285.27 204.14C284.825 203.832 284.467 203.414 284.231 202.927C283.994 202.44 283.887 201.9 283.92 201.36V158.11L291.48 208H294.32L302 158.11V201.36C302.027 201.903 301.914 202.443 301.672 202.93C301.431 203.416 301.068 203.833 300.62 204.14C300.366 204.287 300.152 204.494 299.996 204.744C299.841 204.993 299.75 205.277 299.73 205.57V207.25C299.715 207.352 299.724 207.456 299.756 207.554C299.788 207.652 299.843 207.741 299.916 207.814C299.989 207.887 300.078 207.942 300.176 207.974C300.274 208.006 300.378 208.015 300.48 208H311.22C311.84 208 312.15 207.727 312.15 207.18V205.57C312.136 205.276 312.047 204.99 311.891 204.739C311.735 204.489 311.518 204.283 311.26 204.14C310.806 203.839 310.438 203.423 310.194 202.935C309.95 202.448 309.838 201.904 309.87 201.36V159.12C309.845 158.584 309.957 158.051 310.195 157.57C310.433 157.089 310.789 156.676 311.23 156.37C311.495 156.224 311.719 156.014 311.882 155.759C312.045 155.504 312.14 155.212 312.16 154.91V153.27C312.16 152.77 311.9 152.52 311.38 152.52H298.38L294.38 178.52L290.38 152.52H277.41C276.79 152.52 276.48 152.793 276.48 153.34V154.91C276.494 155.213 276.587 155.508 276.751 155.764C276.914 156.02 277.141 156.229 277.41 156.37C277.855 156.672 278.214 157.084 278.453 157.566C278.691 158.048 278.8 158.583 278.77 159.12V201.35C278.797 201.891 278.686 202.429 278.448 202.915C278.211 203.402 277.853 203.819 277.41 204.13V204.14ZM322.53 201.04C322.433 201.646 322.212 202.226 321.88 202.742C321.547 203.259 321.112 203.701 320.6 204.04C320.371 204.15 320.177 204.322 320.04 204.535C319.902 204.749 319.826 204.996 319.82 205.25V207.11C319.82 207.683 320.237 207.97 321.07 207.97H328.52C329.187 207.97 329.52 207.683 329.52 207.11V205.54C329.52 205.113 329.187 204.613 328.52 204.04C327.453 203.187 326.92 202.403 326.92 201.69C326.923 201.458 326.95 201.227 327 201L328.49 193.83H337.81L339.3 201.28C339.344 201.551 339.367 201.825 339.37 202.1C339.351 202.532 339.21 202.95 338.962 203.304C338.714 203.659 338.37 203.935 337.97 204.1C337.203 204.48 336.82 204.943 336.82 205.49V207.06C336.82 207.633 337.153 207.92 337.82 207.92H349.73C350.183 207.92 350.41 207.633 350.41 207.06V205.49C350.387 205.244 350.299 205.009 350.155 204.809C350.01 204.609 349.816 204.45 349.59 204.35C349.03 204.053 348.539 203.641 348.15 203.14C347.83 202.553 347.619 201.913 347.53 201.25L337.86 152.88C337.767 152.453 337.553 152.24 337.22 152.24C337.109 152.238 337 152.262 336.9 152.31L330.9 155.13C330.54 155.297 330.36 155.5 330.36 155.74C330.36 155.833 330.417 156.273 330.53 157.06L330.86 159.48L322.53 201V201.04ZM336.94 189.3H329.55L333.28 171L336.94 189.3ZM371 183C371.898 184.248 372.491 185.691 372.73 187.21L377.61 206.82C377.645 207.143 377.8 207.44 378.045 207.653C378.29 207.866 378.606 207.979 378.93 207.97H386.04C386.146 207.985 386.254 207.975 386.355 207.941C386.457 207.907 386.549 207.85 386.625 207.775C386.7 207.699 386.757 207.607 386.791 207.505C386.825 207.404 386.835 207.296 386.82 207.19V205.19C386.83 205.059 386.806 204.927 386.75 204.808C386.694 204.688 386.608 204.586 386.5 204.51C385.867 204.158 385.323 203.665 384.91 203.07C384.436 202.144 384.099 201.153 383.91 200.13L381.31 188.82C380.948 186.897 380.148 185.083 378.97 183.52C377.729 182.148 376.217 181.048 374.53 180.29C381.197 178.197 384.53 173.57 384.53 166.41C384.53 161.917 383.15 158.48 380.39 156.1C377.63 153.72 373.61 152.53 368.33 152.53H359C358.38 152.53 358.07 152.803 358.07 153.35V154.92C358.084 155.223 358.177 155.518 358.341 155.774C358.504 156.03 358.731 156.239 359 156.38C359.445 156.682 359.804 157.094 360.043 157.576C360.281 158.058 360.39 158.593 360.36 159.13V201.36C360.387 201.901 360.276 202.439 360.038 202.925C359.801 203.412 359.443 203.829 359 204.14C358.738 204.281 358.515 204.487 358.353 204.736C358.19 204.986 358.093 205.273 358.07 205.57V207.25C358.07 207.75 358.33 208 358.85 208H370C370.62 208 370.93 207.727 370.93 207.18V205.57C370.913 205.271 370.818 204.982 370.655 204.732C370.492 204.481 370.266 204.277 370 204.14C369.553 203.833 369.193 203.416 368.955 202.929C368.717 202.442 368.608 201.901 368.64 201.36V182C369.088 181.997 369.532 182.084 369.946 182.256C370.36 182.428 370.736 182.681 371.05 183H371ZM374.25 158.73C375.477 160.003 376.09 162.67 376.09 166.73C376.09 170.79 375.483 173.667 374.27 175.36C373.057 176.98 371.167 177.79 368.6 177.79V156.84C371.147 156.84 373.03 157.477 374.25 158.75V158.73ZM404.83 159.1C404.8 158.563 404.909 158.028 405.147 157.546C405.386 157.064 405.745 156.652 406.19 156.35C406.455 156.204 406.679 155.994 406.842 155.739C407.005 155.484 407.1 155.192 407.12 154.89V153.25C407.12 152.75 406.86 152.5 406.34 152.5H395.22C394.6 152.5 394.29 152.773 394.29 153.32V154.89C394.31 155.192 394.405 155.484 394.568 155.739C394.73 155.994 394.955 156.204 395.22 156.35C395.665 156.652 396.024 157.064 396.263 157.546C396.501 158.028 396.61 158.563 396.58 159.1V201.33C396.612 201.871 396.503 202.412 396.265 202.899C396.027 203.386 395.667 203.803 395.22 204.11C394.954 204.247 394.728 204.451 394.565 204.702C394.402 204.952 394.307 205.241 394.29 205.54V207.22C394.29 207.72 394.553 207.97 395.08 207.97H406.2C406.82 207.97 407.13 207.697 407.13 207.15V205.54C407.107 205.243 407.01 204.956 406.847 204.706C406.685 204.457 406.462 204.251 406.2 204.11C405.757 203.799 405.399 203.382 405.162 202.895C404.924 202.409 404.813 201.871 404.84 201.33V180.13L412.19 201.39C412.322 201.745 412.393 202.121 412.4 202.5C412.4 203 411.947 203.593 411.04 204.28C410.804 204.459 410.613 204.69 410.483 204.956C410.353 205.221 410.286 205.514 410.29 205.81V206.92C410.29 207.633 410.67 207.99 411.43 207.99H423.27C424.01 207.99 424.38 207.657 424.38 206.99V205.81C424.335 205.432 424.201 205.07 423.989 204.753C423.777 204.437 423.493 204.175 423.16 203.99C421.528 202.82 420.312 201.159 419.69 199.25L410.77 173.25L416.35 161.99C417.493 159.636 419.425 157.757 421.81 156.68C422.265 156.48 422.692 156.221 423.08 155.91C423.29 155.64 423.386 155.3 423.35 154.96V153.53C423.35 152.863 422.98 152.53 422.24 152.53H411.73C411.11 152.53 410.8 152.863 410.8 153.53V154.96C410.828 155.251 410.927 155.53 411.089 155.773C411.252 156.015 411.472 156.214 411.73 156.35C412.323 156.777 412.62 157.17 412.62 157.53C412.607 158.103 412.46 158.665 412.19 159.17L404.84 174.37V159.17L404.83 159.1ZM457.08 195.1C457.097 194.979 457.085 194.856 457.046 194.741C457.007 194.625 456.942 194.52 456.856 194.434C456.77 194.348 456.665 194.283 456.549 194.244C456.434 194.205 456.311 194.193 456.19 194.21H454.65C454.03 194.21 453.603 194.637 453.37 195.49C452.343 199.27 451.487 201.583 450.8 202.43C450.113 203.277 448.877 203.7 447.09 203.7H442.28V181.17H443.71C444.441 181.127 445.167 181.32 445.78 181.72C446.28 182.087 446.743 183.117 447.17 184.81C447.278 185.388 447.47 185.948 447.74 186.47C447.836 186.57 447.953 186.646 448.083 186.693C448.214 186.739 448.353 186.756 448.49 186.74H450.13C450.246 186.755 450.364 186.743 450.475 186.705C450.585 186.667 450.686 186.604 450.768 186.521C450.85 186.437 450.912 186.336 450.949 186.225C450.986 186.114 450.996 185.996 450.98 185.88V172.43C450.98 171.837 450.67 171.54 450.05 171.54H448.5C448.28 171.512 448.058 171.55 447.86 171.65C447.683 172.002 447.552 172.375 447.47 172.76C447.216 174.065 446.732 175.314 446.04 176.45C445.443 176.912 444.69 177.123 443.94 177.04H442.3V156.84H446.8C448.847 156.84 450.207 157.507 450.88 158.84C451.611 160.337 452.088 161.946 452.29 163.6C452.36 164.27 452.68 164.6 453.29 164.6H454.61C454.923 164.641 455.24 164.585 455.52 164.44C455.63 164.33 455.68 164.01 455.68 163.44V153C455.68 152.57 455.29 152.36 454.5 152.36C454.287 152.36 453.763 152.397 452.93 152.47C452 152.54 451.37 152.58 451.04 152.58H432.66C432.087 152.58 431.8 152.807 431.8 153.26V154.97C431.813 155.265 431.902 155.551 432.058 155.801C432.214 156.052 432.431 156.258 432.69 156.4C433.127 156.714 433.478 157.133 433.709 157.62C433.94 158.106 434.043 158.643 434.01 159.18V201.41C434.054 201.887 433.987 202.367 433.814 202.813C433.64 203.259 433.365 203.659 433.01 203.98C432.223 204.573 431.83 205.12 431.83 205.62V207.19C431.813 207.307 431.824 207.426 431.861 207.538C431.899 207.65 431.961 207.752 432.045 207.835C432.128 207.919 432.23 207.981 432.342 208.019C432.454 208.056 432.573 208.067 432.69 208.05H457.1V195.15L457.08 195.1ZM483.4 156.61C483.846 156.562 484.296 156.623 484.713 156.788C485.129 156.954 485.499 157.219 485.79 157.56C486.457 158.807 486.904 160.161 487.11 161.56C487.243 162.342 487.416 163.116 487.63 163.88C487.74 164.19 488.06 164.34 488.63 164.34H490C490.62 164.34 490.93 164.007 490.93 163.34V152.7C490.93 152.11 490.61 151.81 489.93 151.81C489.79 151.81 489.007 151.917 487.58 152.13C486.653 152.297 485.87 152.427 485.23 152.52H472.61C471.127 152.473 469.65 152.32 468.19 152.06C467.354 151.908 466.509 151.811 465.66 151.77C464.9 151.77 464.52 152.173 464.52 152.98V163.36C464.52 164.027 464.923 164.36 465.73 164.36H467.12C467.21 164.374 467.302 164.369 467.39 164.345C467.478 164.322 467.56 164.28 467.631 164.222C467.702 164.165 467.759 164.093 467.801 164.012C467.842 163.93 467.865 163.841 467.87 163.75C468.323 160.757 468.83 158.82 469.39 157.94C469.664 157.508 470.048 157.157 470.504 156.925C470.96 156.693 471.47 156.587 471.98 156.62H473.55V201.31C473.576 201.85 473.465 202.389 473.227 202.875C472.989 203.361 472.633 203.779 472.19 204.09C471.928 204.231 471.705 204.437 471.543 204.686C471.38 204.936 471.283 205.223 471.26 205.52V207.2C471.26 207.7 471.52 207.95 472.04 207.95H483.17C483.79 207.95 484.1 207.677 484.1 207.13V205.52C484.083 205.221 483.988 204.932 483.825 204.682C483.662 204.431 483.436 204.227 483.17 204.09C482.723 203.784 482.362 203.366 482.124 202.879C481.885 202.392 481.777 201.851 481.81 201.31V156.66L483.4 156.61Z" fill="white"/>
<path d="M612.77 80.69C612.832 79.0078 612.661 77.325 612.26 75.69C611.69 73.98 610.08 69.51 609.96 68.78C609.79 67.69 606.78 62.91 606.68 62.42C606.081 61.5343 605.619 60.5634 605.31 59.54C605.15 58.79 602.87 56.54 602.94 56.14C601.45 55.74 594.23 48.67 593.54 48.14C591.38 46.46 583.94 41.87 582.03 41.8C581.7 41.8 575.75 39.65 572.2 38.63C573.31 38.95 571.28 38.26 570.06 38.12C567.979 37.881 565.932 37.4046 563.96 36.7C562.252 36.102 560.49 35.6667 558.7 35.4C556.14 34.93 548.12 33.05 546.41 33.13C545.29 33.19 533.41 32.43 532.03 32.35C531.27 32.35 530.47 32.35 529.7 32.35H525.14C522.69 32.35 519.41 31.83 517.02 32.35C516.02 32.56 506.53 33.11 504.75 33.11C501.61 33.43 498.489 33.914 495.4 34.56C494.22 34.84 487.48 36.83 486.59 36.98C483.59 37.5 466.36 42.79 464.47 44.05C463.3 44.83 462.4 45.12 461.23 45.93C460.511 46.569 459.68 47.0706 458.78 47.41C457.78 47.75 457.35 48.58 456.36 48.86C455.37 49.14 451.95 53 451.18 54C450.85 54.44 449.1 55.47 448.8 55.79C448.14 56.51 447.39 57.98 447.05 58.32C446.93 58.44 445.91 60.03 445.88 60.07C445.34 60.86 445.61 60.48 445.54 61.71C445.54 62.37 445.36 63.87 445.89 64.52C445.929 64.567 445.981 64.6017 446.04 64.62C446.211 65.3699 446.498 66.0885 446.89 66.75C447.32 67.49 447.89 68.21 448.42 68.91C448.802 69.5118 449.216 70.0926 449.66 70.65C449.832 70.8233 449.971 71.0267 450.07 71.25C450.095 71.3686 450.15 71.4788 450.23 71.57C450.449 71.7219 450.688 71.843 450.94 71.93C451.28 72.11 451.6 72.32 451.94 72.52C452.164 72.6343 452.381 72.7611 452.59 72.9C452.889 73.2206 453.264 73.4612 453.68 73.6C454.28 73.77 454.82 73.97 455.43 74.11C455.83 74.2 456.09 74.54 456.43 74.63C456.53 74.6686 456.64 74.6686 456.74 74.63C457.523 74.8808 458.331 75.0451 459.15 75.12C459.97 75.12 460.75 74.96 461.57 74.96C461.95 74.96 462.82 75.06 462.97 74.64C463.31 73.71 460.81 73.98 460.37 73.98C459.868 74.0329 459.362 74.0329 458.86 73.98C458.677 73.9117 458.49 73.8549 458.3 73.81C457.97 73.81 457.37 73.99 457.41 73.51C457.14 73.51 457.06 73.34 456.88 73.2C456.7 73.06 456.61 73.09 456.43 72.98C455.98 72.7 455.74 72.17 455.3 71.86C454.86 71.55 454.3 71.26 453.8 70.92C453.3 70.58 453.12 70.18 452.65 69.92C452.385 69.7953 452.13 69.6481 451.89 69.48C451.33 68.9224 450.837 68.3016 450.42 67.63C450.13 67.23 450.11 66.87 449.74 66.56C449.53 66.38 449.31 66.31 449.18 66.03C449.114 65.9028 449.077 65.763 449.07 65.62C448.95 65.4 448.72 65.29 448.6 65.06C448.495 64.7529 448.411 64.4388 448.35 64.12C448.27 63.89 448.17 63.69 448.09 63.45C448.32 62.33 447.85 60.82 448.09 60.45C448.33 60.08 453.97 55.45 454.43 54.39C454.89 53.33 460.58 50.31 460.91 50.02C461.612 49.2467 462.471 48.6329 463.43 48.22C466.22 47.36 479.12 43.22 479.13 42.4C479.81 42.27 483.96 40.94 484.51 40.96C485.06 40.98 486.92 40.2 487.59 40.05C488.6 39.7114 489.655 39.5227 490.72 39.49C492.93 39.0584 495.086 38.3878 497.15 37.49C500.15 36.09 503.7 36.59 507.08 36.59H528.89C531.05 36.59 533.89 36.14 535.94 36.59C537.52 36.9 549.15 38.1 553.47 38.06C555.81 38.06 557.68 38.8 560.04 38.77C561.04 38.77 563.87 39.58 564.57 39.63C564.69 40.02 567.43 40.7 568.57 40.89C569.565 41.1349 570.546 41.432 571.51 41.78C572.881 42.1391 574.219 42.6141 575.51 43.2C577.9 44.3 585.44 47.78 586.36 48.2C586.45 48.6 588.48 49.41 589.36 49.65C590.257 49.9378 591.087 50.4038 591.8 51.02C592.209 51.8439 592.848 52.5317 593.64 53C594.298 53.3173 594.936 53.6746 595.55 54.07C596.73 54.93 597.33 56.46 597.8 56.92C598.587 57.7574 599.322 58.6424 600 59.57C600.4 60.1 600.77 60.68 601.13 61.22C601.49 61.76 602.13 62.22 602.4 62.67C602.88 63.38 606.49 68.12 606.78 69.22C607.14 70.61 608.28 71.03 608.38 72.53C608.48 74.03 608.16 75.42 608.53 76.84C608.658 79.9415 608.585 83.0481 608.31 86.14C608.31 86.65 606.77 89.44 606.78 89.69C606.44 91.37 607.14 92.69 606.23 94.21C605.77 94.96 605.45 94.98 605.23 95.89C605.11 96.36 605.23 96.89 605.08 97.43C604.907 97.503 604.756 97.6198 604.642 97.7689C604.528 97.9179 604.455 98.0941 604.43 98.28C604.257 99.2346 603.918 100.152 603.43 100.99C602.83 101.99 601.73 105.47 601.15 106.23C600.68 106.83 600.15 107.07 599.74 107.64C599.158 108.558 598.637 109.514 598.18 110.5C597.29 112.495 595.705 114.098 593.72 115.01C593.088 115.314 592.507 115.716 592 116.2C591.65 116.53 591.56 117.1 591.07 117.49C590.549 117.744 590.015 117.971 589.47 118.17C589.04 118.4 588.56 118.83 588.13 119.08C586.79 119.85 585.3 120.08 584.01 121.08C583.22 121.67 582.56 122.18 581.72 122.74C580.41 123.62 579.08 125.01 577.4 125.43C575.88 125.81 573.32 127.77 571.75 127.56C570.18 127.35 564.31 128.22 562.81 128.04C560.737 127.882 558.658 127.835 556.58 127.9C555.01 127.9 550.38 125.11 549.58 124.83C548.35 124.41 548.2 123.64 546.8 122.26C545.9 121.61 545.4 120.26 544.8 119.67C542.73 117.6 543.88 117.83 542.27 115.67C541.847 115.163 541.463 114.624 541.12 114.06C540.688 113.531 540.408 112.895 540.31 112.22C540.31 111.65 541.46 111.42 542.49 111.3C543.096 111.215 543.682 111.022 544.22 110.73C544.79 110.27 546.22 110.27 546.86 109.93C547.5 109.59 549.04 108.21 550.77 107.06C553.53 104.99 556.17 102.12 556.86 100.16V99.7C556.85 99.3591 556.976 99.0284 557.21 98.78C557.882 97.7597 558.204 96.5492 558.13 95.33C558.144 94.7542 558.104 94.1784 558.01 93.61C557.896 92.6578 557.493 91.7636 556.855 91.0481C556.216 90.3327 555.373 89.8307 554.44 89.61C553.951 89.5035 553.45 89.4631 552.95 89.49C551.906 89.4799 550.865 89.5975 549.85 89.84C547.216 90.795 544.769 92.2028 542.62 94C541.01 95.26 539.86 96.53 538.25 97.68C537.314 98.5018 536.432 99.3836 535.61 100.32C535.15 100.89 534 101.12 533.61 101.7C533.01 102.677 532.276 103.566 531.43 104.34L531.08 104.46C531.08 102.46 532 101.7 532.35 100.32C532.632 99.4302 532.849 98.5212 533 97.6C533.322 96.055 533.907 94.5768 534.73 93.23C536.22 91.85 536.22 92.08 536.45 91.39C536.496 91.189 536.574 90.9966 536.68 90.82L540.68 86.11C541.6 85.11 542.52 83.81 543.44 82.89C545.965 80.434 548.2 77.696 550.1 74.73C552.775 71.4173 555.16 67.881 557.23 64.16C558.23 62.09 559.23 60.37 560.1 58.3C560.737 57.176 561.241 55.9812 561.6 54.74C562.63 52.4246 563.177 49.9239 563.21 47.39C563.21 44.63 561.21 41.99 559.42 41.64C558.926 41.5463 558.423 41.5094 557.92 41.53C556.016 41.618 554.178 42.2572 552.63 43.37C548.26 45.9 543.43 51.99 541.13 56.24C540.32 57.73 539.06 58.88 538.25 60.24L537.33 62.31C536.974 62.9183 536.551 63.4851 536.07 64C535.784 65.1561 535.361 66.274 534.81 67.33C534.69 67.44 534.58 68.13 534 69.4L531.36 75.03C531.01 75.95 531.36 77.21 530.9 77.9C530.21 78.59 530.1 79.39 529.63 80.66L528.25 85.14C528.02 86.14 527.79 87.32 527.44 88.47C527.12 89.5091 526.698 90.514 526.18 91.47C525.6 92.96 525.83 93.88 525.18 95.38C524.95 95.84 524.38 96.18 524.18 96.64C523.92 97.341 523.585 98.0117 523.18 98.64C522.38 99.9 521.46 101.28 520.65 102.32C520.142 102.847 519.605 103.344 519.04 103.81C518.23 104.61 518.69 104.96 518.35 105.3C518.01 105.64 517.54 105.3 517.43 105.65C517.09 106.33 515.97 106.85 515.43 107.53C515.18 107.69 514.95 107.89 514.71 108.07C513.859 108.784 512.953 109.429 512 110C511.441 110.296 510.866 110.563 510.28 110.8C509.647 111.222 508.947 111.533 508.21 111.72C507.518 111.995 506.774 112.114 506.03 112.07H505.03C504.487 112.131 503.938 112.073 503.42 111.901C502.902 111.728 502.427 111.445 502.03 111.07C503.29 109 504.79 106.01 504.79 102.91C505.321 101.65 505.726 100.34 506 99C506.094 98.3914 506.131 97.7754 506.11 97.16C506.23 96.7 506.46 96.47 506.46 96.01V95.21C506.46 92.11 505.31 90.15 504.28 89.21C502.648 87.6339 500.459 86.7676 498.19 86.8C497.461 86.7829 496.732 86.823 496.01 86.92C494.75 87.15 493.14 87.92 491.64 87.92H490.83C490.632 87.8925 490.43 87.9349 490.26 88.04C487.833 89.1411 485.616 90.6572 483.71 92.52C483.3 93.0369 482.916 93.5742 482.56 94.13C482.22 94.48 481.76 94.48 481.41 94.93C479.885 96.7222 478.466 98.6021 477.16 100.56C476.47 101.71 476.35 103.32 475.67 104.47C475.372 104.707 475.101 104.975 474.86 105.27C474.411 106.054 474.144 106.929 474.08 107.83L473.83 108.03C473.039 108.76 472.193 109.429 471.3 110.03C470.741 110.326 470.166 110.593 469.58 110.83C468.947 111.252 468.247 111.563 467.51 111.75C466.818 112.025 466.074 112.144 465.33 112.1H464.33C463.787 112.161 463.238 112.103 462.72 111.931C462.202 111.758 461.727 111.475 461.33 111.1C462.49 109 464 106 464 102.89C464.506 101.634 464.888 100.331 465.14 99C465.237 98.3918 465.278 97.7758 465.26 97.16C465.38 96.7 465.61 96.47 465.61 96.01V95.21C465.61 92.11 464.46 90.15 463.43 89.21C461.798 87.6339 459.609 86.7676 457.34 86.8C456.611 86.7829 455.882 86.823 455.16 86.92C453.9 87.15 452.29 87.92 450.79 87.92H450C449.802 87.8925 449.6 87.9349 449.43 88.04C447.003 89.1411 444.786 90.6572 442.88 92.52C442.47 93.037 442.086 93.5743 441.73 94.13C441.38 94.48 440.92 94.48 440.58 94.93C439.055 96.7222 437.636 98.6021 436.33 100.56C435.64 101.71 435.53 103.32 434.84 104.47C434.542 104.707 434.271 104.975 434.03 105.27C433.662 105.857 433.432 106.521 433.36 107.21C432.788 107.762 432.263 108.361 431.79 109C431.45 109.35 430.64 109.58 430.3 109.92C429.491 110.842 428.562 111.652 427.54 112.33C426.85 112.9 426.62 114.17 425.82 114.74C425.47 114.97 424.9 115.09 424.56 115.31C423.616 116.111 422.613 116.84 421.56 117.49C420.76 117.95 420.76 118.75 419.95 119.21L418.57 119.44C418.34 119.56 418.22 120.36 417.99 120.44C415.92 120.44 415.23 121.01 413.16 122.05C412.042 122.552 410.889 122.974 409.71 123.31C407.541 124.113 405.242 124.503 402.93 124.46C401.21 124.46 400.17 123.66 399.6 121.24C399.503 120.672 399.463 120.096 399.48 119.52C399.48 116.3 401.09 114 401.09 111.71C401.09 111.25 400.51 110.56 400.51 110.45C400.63 109.99 401.43 109.65 401.66 109.3C402.35 108.3 402.81 107.12 403.5 105.85C403.644 105.648 403.725 105.408 403.73 105.16C403.707 104.891 403.667 104.624 403.61 104.36C403.61 103.56 405.1 103.1 405.33 102.87C406.71 101.61 405.79 101.87 407.17 100.34C408.09 99.34 407.98 98.5 409.17 97.58C409.4 97.24 410.32 97.12 410.55 97.01C411.01 96.55 412.73 95.86 413.19 95.52C414.213 94.4735 415.539 93.7741 416.98 93.52C418.98 93.52 419.98 93.87 420.43 94.9C420.523 95.1973 420.56 95.5092 420.54 95.82C420.443 96.7595 420.128 97.6634 419.62 98.46C419.28 99.15 418.47 99.72 418.47 100.18C418.47 100.64 419.16 101.56 419.73 101.56C421.11 101.22 422.6 99.56 423.64 98.46C424.33 97.66 425.82 96.46 426.86 95.24C427.21 94.78 426.98 94.32 427.21 93.86C427.44 93.4 428.13 94.09 428.7 92.86C429.214 91.9903 429.49 91.0004 429.5 89.99C429.5 89.07 428.35 86.66 427.09 86.66C425.37 86.66 424.45 91.37 422.72 92.87C422.49 92.18 422.15 92.18 421.8 91.87C421.117 91.1448 420.298 90.5605 419.39 90.15C417.909 89.6532 416.352 89.4197 414.79 89.46C412.03 89.46 408.93 89.81 406.86 91.07C406.448 91.4634 406.064 91.8843 405.71 92.33C404.91 93.02 403.71 92.67 402.95 93.25C401.02 94.5363 399.311 96.1269 397.89 97.96C395.875 100.599 394.094 103.41 392.57 106.36C391.41 106.43 388.91 110.15 387.57 111.07C387.11 111.53 385.96 112.07 385.57 112.56C385.005 113.431 384.307 114.207 383.5 114.86C383.27 115.2 382.7 115.2 382.5 115.55C381.605 116.676 380.646 117.751 379.63 118.77C378.71 119.34 377.79 119.69 376.87 120.26L376.41 121.06C375.631 121.395 374.825 121.663 374 121.86C373.675 121.949 373.337 121.986 373 121.97C372.65 121.97 372.31 121.86 372.31 121.4C372.31 121.17 372.2 120.94 372.2 120.6C372.217 119.822 372.331 119.049 372.54 118.3V117.61C372.52 117.299 372.557 116.987 372.65 116.69C373 115.77 373.34 115.89 373.46 115.54C374.26 113.93 374.38 111.98 374.95 110.6C375.3 109.6 375.18 108.76 375.53 107.73C376.22 105.89 377.02 104.05 377.83 102.21C378.06 101.64 378.64 100.95 378.83 100.37C379.83 97.73 381.7 95.66 381.7 93.25C381.717 92.9386 381.676 92.6267 381.58 92.33C381.34 91.8939 381.072 91.4731 380.78 91.07C380.09 90.38 380.66 89.35 379.51 88.54C378.875 88.273 378.198 88.1174 377.51 88.08C377.074 88.0529 376.639 88.1318 376.24 88.31C374.86 89 375.44 89.11 374.52 90.49C373.984 90.9634 373.477 91.4676 373 92C371.74 93.26 370.82 94.76 370 95.56C369 96.56 369.08 97.05 367.82 98.66C367.058 99.8198 366.23 100.935 365.34 102C365.11 102.23 364.65 102.46 364.34 102.8C364.037 103.105 363.765 103.44 363.53 103.8C363.07 104.26 362.96 105.06 362.61 105.52C362.26 105.98 361.69 105.75 361.46 106.21C361.23 106.67 359.46 108.39 359.46 108.97C359.46 109.55 359.92 110.46 360.84 110.46C361.658 110.176 362.382 109.671 362.93 109C363.238 108.667 363.572 108.359 363.93 108.08C364.27 107.73 364.39 107.28 364.73 106.93C365.315 106.399 365.929 105.901 366.57 105.44C367.14 104.98 367.14 104.64 367.37 104.64C367.429 104.645 367.485 104.67 367.528 104.712C367.57 104.755 367.595 104.811 367.6 104.87C365.809 108.82 364.422 112.941 363.46 117.17C363.302 118.118 363.225 119.079 363.23 120.04C363.138 121.134 363.295 122.235 363.69 123.26C364.5 124.52 366.91 125.56 368.75 125.9C368.98 125.9 369.1 126.01 369.33 126.01C370.869 125.832 372.376 125.445 373.81 124.86C374.73 124.52 377.14 123.94 378.06 123.25C378.64 122.79 378.98 121.87 379.55 121.53C380.12 121.19 380.47 121.41 380.82 121.19L381.74 120.04C383.74 117.97 386.11 116.59 388.18 114.64C388.931 113.891 389.623 113.085 390.25 112.23L390.57 112.14C390.467 112.661 390.4 113.189 390.37 113.72C390.37 114.52 389.56 116.02 389.56 116.59C389.56 117.16 389.79 117.74 389.79 118.31C389.695 120.797 390.396 123.249 391.79 125.31C392.94 126.92 397.42 128.76 400.64 128.76C401.139 128.785 401.64 128.748 402.13 128.65C403.22 128.377 404.337 128.223 405.46 128.19C405.81 128.19 406.73 127.73 407.3 127.62C408.68 127.16 410.52 126.82 411.78 126.24C412.799 125.778 413.762 125.201 414.65 124.52C414.88 124.29 416.37 124.06 416.65 123.83C419.87 121.83 422.74 120.04 425.73 117.97C426.998 117.209 428.159 116.28 429.18 115.21C430.055 114.174 431.063 113.259 432.18 112.49C432.087 113.394 432.04 114.302 432.04 115.21C431.916 117.663 432.39 120.11 433.42 122.34C434.91 125.21 438.36 126.48 441.7 126.48C443.621 126.482 445.527 126.144 447.33 125.48C448.718 124.841 449.997 123.987 451.12 122.95C451.47 122.72 451.47 122.6 451.58 122.6C451.93 122.37 452.04 121.45 452.39 121.11C452.74 120.77 453.2 120.76 453.77 120.42C455.136 119.205 456.333 117.812 457.33 116.28L457.56 115.93C458.56 114.55 458.71 115.36 459.63 113.63C460.919 114.486 462.456 114.89 464 114.78C465.689 114.779 467.364 114.467 468.94 113.86C469.29 113.75 469.4 113.4 469.74 113.29C470.037 113.194 470.349 113.153 470.66 113.17C471.426 112.889 472.129 112.461 472.73 111.91L473.09 111.68C473.157 110.379 473.473 109.102 474.02 107.92C473.65 108.31 472.77 110.92 473.09 111.68C472.921 112.859 472.838 114.049 472.84 115.24C472.716 117.693 473.19 120.14 474.22 122.37C475.71 125.24 479.16 126.51 482.5 126.51C484.421 126.512 486.327 126.174 488.13 125.51C489.518 124.871 490.798 124.017 491.92 122.98C492.27 122.75 492.27 122.63 492.38 122.63C492.73 122.4 492.84 121.48 493.19 121.14C493.54 120.8 494 120.79 494.57 120.45C495.936 119.235 497.133 117.842 498.13 116.31L498.36 115.96C499.36 114.58 499.51 115.39 500.43 113.66C501.719 114.516 503.256 114.92 504.8 114.81C506.489 114.809 508.164 114.497 509.74 113.89C510.09 113.78 510.2 113.43 510.54 113.32C510.837 113.224 511.149 113.183 511.46 113.2C512.226 112.919 512.929 112.491 513.53 111.94C514.643 111.265 515.69 110.488 516.66 109.62C517.122 109.448 517.549 109.194 517.92 108.87C518.38 108.41 519.63 107.34 519.97 107C520.599 106.485 521.175 105.909 521.69 105.28C522.04 104.94 522.61 103.67 523.18 103.67C523.263 103.695 523.338 103.74 523.399 103.801C523.46 103.862 523.505 103.937 523.53 104.02C523.099 105.218 522.764 106.449 522.53 107.7C522.19 111.61 521.61 111.26 520.69 116.43C520.377 118.138 520.183 119.865 520.11 121.6C520.11 122.52 519.76 122.86 519.76 123.67V124C519.88 124.69 522.4 125 523.09 125.49C523.811 125.96 524.641 126.235 525.5 126.29C526.19 126.29 527.34 126.06 527.68 125.29C528.6 123.29 528.68 117.94 529.68 114.95C530.03 113.69 529.91 112.31 530.6 111.39L531.6 109.9C532.4 108.64 532.29 107.03 533.32 106.11C533.67 105.88 534.12 105.88 534.32 105.65C534.784 104.988 535.352 104.404 536 103.92C536 103.57 537 103 537.49 102.43C538.29 101.43 538.41 100.43 539.33 99.67C540.02 99.1 541.17 99.1 541.63 98.41L542.74 97C544.655 95.5586 546.789 94.4343 549.06 93.67C549.277 93.575 549.514 93.5338 549.75 93.55C549.944 93.534 550.138 93.5808 550.304 93.6834C550.47 93.786 550.598 93.939 550.67 94.12C550.763 94.4448 550.804 94.7824 550.79 95.12C550.752 96.4084 550.409 97.6694 549.79 98.8C549.56 99.15 549.44 99.8 549.21 100.18C548.98 100.56 548.52 100.64 548.06 100.98C547.26 101.67 546.91 102.59 546.22 103.28C543.35 106.28 541.39 108.8 537.83 108.8C537.25 108.8 536.45 108.11 535.65 108.11C534.85 108.11 533.12 110.75 533.12 112.11C533.12 113.26 533.24 113.11 533.81 114.11C534.301 114.577 534.762 115.075 535.19 115.6L535.42 116.17C536.57 118.81 536 118.58 537.72 121.11C538.044 121.549 538.431 121.936 538.87 122.26C539.22 122.38 539.79 123.75 540.02 123.98L541.89 125.62C542.27 126.62 544.94 128.49 546.1 128.9C546.832 129.203 547.541 129.561 548.22 129.97C551.88 131.77 557.41 131.44 561.68 131.22C563.09 131.15 572.28 130.96 573.39 130.34C575.359 129.464 577.391 128.738 579.47 128.17C579.97 128.06 581.13 127.5 581.75 127.27C583.41 126.66 584.75 125.85 586.48 125.32C586.57 124.93 588.1 124.21 588.82 123.91C588.89 123.51 592.56 121.63 593.53 120.98C594.89 120.07 596.4 119.05 597.73 118.09C599.06 117.13 599.26 116.25 600.45 115.25C601.09 114.71 601.91 114.35 602.51 113.83C602.763 113.449 603.037 113.082 603.33 112.73L604.33 112.39C605.55 111.39 609.33 103.86 609.84 103.07C610.35 102.28 613.28 90.07 612.65 89.61C612.779 88.6994 612.825 87.779 612.79 86.86C612.79 84.68 612.79 82.77 612.79 80.59L612.77 80.69ZM459.27 98.06C458.457 98.2134 457.684 98.5335 457 99C455.74 99.8 454.59 101 454.59 102.33V105.33C454.618 105.909 454.695 106.484 454.82 107.05C455.28 108.49 455.98 109.843 456.89 111.05C455.556 113.289 453.976 115.372 452.18 117.26C451.207 118.402 450.087 119.411 448.85 120.26C447.612 121.353 446.022 121.964 444.37 121.98C443.451 122.093 442.521 121.892 441.73 121.41C440.58 120.49 440.24 119.57 440.24 117.27V115C440.573 113.981 440.956 112.98 441.39 112C441.85 110.51 443.57 108 443.57 106.37C443.57 106.03 443.23 105.37 443.23 104.76C443.57 104.19 444.61 103.96 445.23 103.61C446.61 102.69 446.23 102 446.72 101.2C447.586 100.049 448.546 98.972 449.59 97.98C450.501 96.7624 451.541 95.646 452.69 94.65C454.99 93.04 455.22 92.35 457.98 91.89C458.21 91.89 458.55 91.77 458.79 91.77C459.201 91.6974 459.623 91.722 460.022 91.8419C460.421 91.9617 460.787 92.1734 461.09 92.46C461.9 93.26 461.78 94.53 461.9 95.68C461.9 95.91 462.25 96.37 462.25 96.68C462.25 96.99 461.9 97.37 461.9 97.6L461.78 98.6C461.21 98.03 460.63 98.03 459.37 98.03L459.27 98.06ZM500.08 98.06C499.258 98.2034 498.474 98.5167 497.78 98.98C496.51 99.78 495.37 100.98 495.37 102.31V105.31C495.399 105.879 495.476 106.444 495.6 107C496.06 108.441 496.759 109.793 497.67 111C496.336 113.239 494.756 115.322 492.96 117.21C491.987 118.352 490.867 119.361 489.63 120.21C488.392 121.303 486.802 121.914 485.15 121.93C484.231 122.043 483.301 121.842 482.51 121.36C481.36 120.44 481.02 119.52 481.02 117.22V115C481.353 113.981 481.736 112.98 482.17 112C482.63 110.51 484.35 108 484.35 106.37C484.35 106.03 484.01 105.37 484.01 104.76C484.35 104.19 485.39 103.96 486.01 103.61C487.39 102.69 487.01 102 487.5 101.2C488.366 100.049 489.326 98.972 490.37 97.98C491.281 96.7625 492.321 95.6462 493.47 94.65C495.77 93.04 496 92.35 498.76 91.89C498.99 91.89 499.33 91.77 499.56 91.77C499.971 91.6974 500.393 91.722 500.792 91.8419C501.191 91.9617 501.557 92.1734 501.86 92.46C502.67 93.26 502.55 94.53 502.67 95.68C502.67 95.91 503.01 96.37 503.01 96.68C503.01 96.99 502.67 97.37 502.67 97.6L502.55 98.6C501.98 98.03 501.4 98.03 500.14 98.03L500.08 98.06ZM537.34 83.7C538.06 80.9165 538.983 78.1893 540.1 75.54C540.156 75.2662 540.276 75.0095 540.45 74.7906C540.623 74.5717 540.846 74.3968 541.1 74.28C541.44 73.82 541.22 72.56 542.25 70.28C543.28 68 545.47 63.38 545.7 62.35C545.626 62.0303 545.511 61.7212 545.36 61.43C545.36 61.43 546.63 61.08 546.74 60.74C547.55 59.13 549.5 55.91 549.5 55.68C549.5 55.45 550.5 54.76 550.77 54.42C551.04 54.08 550.89 53.73 551.11 53.42C551.69 52.5 552.26 51.58 553.29 50.2C554.32 48.82 556.74 47.2 557.66 47.2C557.896 47.1838 558.133 47.225 558.35 47.32C559.04 47.67 559.27 48.93 559.27 49.5C559.186 51.3805 558.808 53.2363 558.15 55C557.8 55.8 556.88 57.53 556.65 58.22C556.42 58.91 555 59.8 554.58 60.6C553.78 62.21 553.66 63.36 552.86 64.85C551.462 67.3113 549.926 69.6917 548.26 71.98C546.65 74.39 542.63 79.91 541.02 81.4L539.18 83.47C539.06 83.7 537.91 84.96 537.57 84.96C537.23 84.96 537.34 84.16 537.34 83.7ZM601.45 43C600.1 41.52 592.73 36.76 591.94 36.3C589.48 34.85 581.03 30.91 578.86 30.85C578.49 30.85 568.12 28.23 567.7 28.12C566.908 27.8735 566.088 27.7257 565.26 27.68C562.918 27.4791 560.599 27.0708 558.33 26.46C556.36 25.943 554.355 25.572 552.33 25.35C549.42 24.95 540.33 23.35 538.33 23.4C537.05 23.4 523.51 22.8 521.99 22.73C521.13 22.73 520.21 22.73 519.34 22.73H514.16C511.37 22.73 507.65 22.28 504.93 22.73C503.75 22.91 493.02 23.39 490.99 23.39C489.31 23.39 481.76 24.39 480.37 24.64C478.98 24.89 471.37 26.64 470.37 26.72C466.98 27.16 447.37 31.72 445.24 32.8C444.101 33.2953 443.021 33.9158 442.02 34.65C441.02 35.44 440.1 35.36 438.78 35.65C437.62 35.94 437.16 36.65 436.03 36.9C434.9 37.15 431.03 40.47 430.14 41.35C429.77 41.73 428.51 42.9 428.14 43.18C427.39 43.8 426.02 45.38 425.62 45.67C425.48 45.77 424.62 46.59 424.54 46.67C423.92 47.35 423.77 46.96 423.69 48.02C423.62 48.87 423.85 52.29 425.69 50.54C427.53 48.79 426.28 47.76 429.1 45.3C429.36 45.07 440.82 38.25 441.19 37.99C442.04 37.2962 443.014 36.7702 444.06 36.44C447.23 35.7 461.89 32.12 461.9 31.44C462.68 31.33 467.39 30.18 468.01 30.2C468.63 30.22 470.75 29.54 471.51 29.41C472.675 29.1169 473.869 28.9559 475.07 28.93C477.547 28.572 479.989 28.0033 482.37 27.23C485.74 26.02 489.82 26.46 493.66 26.46H518.45C520.91 26.46 524.1 26.07 526.45 26.46C528.24 26.73 541.45 27.76 546.37 27.73C549.03 27.73 551.15 28.37 553.83 28.34C554.99 28.34 558.19 29.04 558.98 29.08C559.11 29.41 562.23 30 563.58 30.16C564.69 30.29 565.81 30.7 566.91 30.93C568.449 31.2345 569.966 31.6421 571.45 32.15L583.79 36.46C583.89 36.8 586.21 37.46 587.24 37.71C588.224 37.9435 589.16 38.3426 590.01 38.89C590.519 39.6003 591.21 40.16 592.01 40.51C592.748 40.7802 593.473 41.0872 594.18 41.43C595.52 42.17 596.18 43.48 596.74 43.89C597.63 44.6001 598.475 45.3649 599.27 46.18C599.73 46.63 600.15 47.18 600.56 47.6C600.97 48.02 601.65 49.33 602.07 49.16C604.57 48.16 602.76 44.55 601.41 43.07L601.45 43ZM422.71 56.4C422.644 55.939 422.644 55.471 422.71 55.01L423.66 53.23C423.75 52.9 423.66 52.7 423.32 52.46C422.43 52.57 422.13 52.04 421.72 52.46C421.289 53.1792 420.975 53.9623 420.79 54.78C420.826 54.846 420.845 54.9199 420.845 54.995C420.845 55.0701 420.826 55.144 420.79 55.21C420.47 56.08 419.79 57.21 420.5 58.1C421.04 58.8 420.79 59.9 421.28 60.63C421.77 61.36 422.22 61.85 422.64 62.58C422.87 62.98 423.64 63.33 423.81 63.75C423.88 63.88 429.29 67.23 431.51 68.69C432.129 69.1105 432.802 69.4467 433.51 69.69C434.553 69.9511 435.639 69.9954 436.7 69.82C436.488 69.6416 436.264 69.4779 436.03 69.33C435.78 69.22 435.42 69.18 435.14 69.05C434.653 68.7942 434.191 68.4928 433.76 68.15C433.145 67.8166 432.507 67.5291 431.85 67.29C431.407 67.0975 430.984 66.8595 430.59 66.58C430.478 66.4709 430.377 66.3502 430.29 66.22C430.139 66.1391 429.971 66.0946 429.8 66.09C429.52 65.86 428.23 64.86 427.8 64.57C427.479 64.3773 427.168 64.1669 426.87 63.94C426.02 62.9993 425.303 61.9461 424.74 60.81C424.512 60.2746 424.251 59.7537 423.96 59.25C423.65 58.63 423.67 57.94 423.37 57.33C423.19 56.96 422.89 56.79 422.77 56.43L422.71 56.4ZM594.07 31.6C595.47 30.54 592.45 26.6 591.58 26.26C586.958 24.4935 582.233 23.0108 577.43 21.82C577.04 21.72 570.6 20.43 567.53 19.82L568.14 19.96C564.99 19.32 565.58 19.44 567.53 19.82C565.639 19.3081 563.719 18.9107 561.78 18.63C559.186 18.3762 556.611 17.9587 554.07 17.38C551.837 16.8514 549.577 16.4408 547.3 16.15C544 15.83 533.88 14.6 531.7 14.66C530.27 14.7 515.14 14.2 513.45 14.15C512.45 14.15 511.45 14.15 510.45 14.15H504.67C501.55 14.15 497.4 13.81 494.36 14.15C493.05 14.29 481.05 14.65 478.79 14.65C476.91 14.65 468.48 15.41 466.92 15.6C465.36 15.79 456.87 17.09 455.74 17.19C452 17.5 430.1 21 427.7 21.8C426.461 22.1642 425.257 22.636 424.1 23.21C422.946 23.6756 421.723 23.9459 420.48 24.01C419.18 24.23 418.67 24.78 417.41 25.01C416.15 25.24 411.8 27.73 410.83 28.39C410.41 28.68 409.01 29.57 408.63 29.78C407.8 30.25 406.26 31.46 405.82 31.68C405.67 31.76 404.66 32.38 404.62 32.41C403.93 32.93 402.37 35.2 405.04 34.58C407.04 34.1 406.46 33 406.93 32.63C407.18 32.43 422.79 25.99 423.2 25.8C424.203 25.2513 425.281 24.8537 426.4 24.62C430 24 446.33 21.29 446.35 20.76C447.22 20.68 452.48 19.76 453.17 19.82C453.86 19.88 456.23 19.32 457.08 19.22C458.402 18.9963 459.739 18.8759 461.08 18.86C463.823 18.5931 466.548 18.1624 469.24 17.57C473 16.64 477.53 17 481.82 17H509.5C512.24 17 515.81 16.7 518.5 17C520.5 17.21 535.26 18 540.75 18C543.75 18 546.09 18.49 549.09 18.47C550.39 18.47 553.96 19.54 554.84 19.57C554.99 19.82 558.46 20.27 559.98 20.39C561.23 20.49 562.48 20.8 563.71 20.97C565.49 21.22 567.13 21.51 568.78 21.9C571.78 22.62 580.78 25.58 581.97 25.9C582 26 585 27 586.35 27.67C587.23 28.13 588.72 29.31 589.44 29.67C590.065 30.2508 590.819 30.6757 591.64 30.91C592.32 31.09 593.56 31.99 594.06 31.61L594.07 31.6ZM403.55 36.8C403.4 36.32 403.43 36.32 403.07 36.14C402.71 35.96 402.62 35.7 402.42 35.73C402.046 35.7924 401.702 35.9725 401.438 36.2441C401.173 36.5157 401.002 36.8646 400.95 37.24C400.845 37.9025 400.845 38.5775 400.95 39.24C401.052 39.7967 401.196 40.3449 401.38 40.88C401.506 41.1426 401.675 41.3825 401.88 41.59C402.36 42.24 402.59 43.13 403.1 43.76C403.3 44.01 403.35 43.93 403.56 44.1C403.77 44.27 403.82 44.89 404.1 45.17C404.38 45.45 404.4 45.27 404.65 45.35C404.9 45.43 405.01 45.68 405.14 45.71C405.62 45.8 405.62 45.47 405.57 45.03C405.419 44.4811 405.221 43.9459 404.98 43.43C404.936 43.183 404.876 42.9391 404.8 42.7C404.65 42.38 404.31 42.26 404.13 41.96C403.645 41.1705 403.444 40.2392 403.56 39.32C403.811 38.4988 403.811 37.6213 403.56 36.8H403.55ZM396 59.68C396.415 58.2997 396.647 56.8708 396.69 55.43C396.69 54.63 396.57 53.94 396.11 53.71C395.485 53.2224 394.722 52.9427 393.93 52.91C392.21 52.91 392.09 54.52 391.4 55.32C390.4 56.32 388.87 56.93 388.18 58.42C387.969 58.9314 387.854 59.4771 387.84 60.03C387.877 60.532 387.954 61.0302 388.07 61.52C388.163 62.0109 388.2 62.5108 388.18 63.01C388.18 64.27 387.72 65.08 387.26 67.15C387.163 67.5253 387.123 67.9128 387.14 68.3C387.14 69.1 387.37 69.79 388.14 69.79C391.59 69.79 395.04 62.89 395.96 59.68H396ZM384.66 73.24H382.94C379.402 73.3594 375.89 73.8998 372.48 74.85C371.48 75.08 370.07 75.54 368.8 75.77C368.52 75.6116 368.202 75.5321 367.88 75.54C367.719 75.5213 367.556 75.5603 367.42 75.65C367.014 75.8036 366.584 75.8816 366.15 75.88C366.036 75.8681 365.926 75.8315 365.828 75.7728C365.729 75.7141 365.645 75.6346 365.58 75.54C365.58 74.39 366.38 73.93 366.58 73.13V72.33C366.569 72.0189 366.61 71.7081 366.7 71.41C366.82 71.29 367.85 70.49 367.85 70.26C368.19 69.69 367.96 69.26 368.31 68.77C368.54 68.65 368.66 68.42 368.89 68.42C369.58 67.16 371.07 65.78 371.89 64.42C373.38 61.55 374.3 59.02 375.68 56.49C375.724 56.4438 375.756 56.3883 375.775 56.3277C375.794 56.267 375.799 56.2029 375.79 56.14C375.79 55.8 374.98 55.34 374.79 55.14C374.6 54.94 374.19 55 374 55C373.54 55 372.74 55.12 372.39 55.12C370.09 55.12 368.71 57.88 367.1 59.26C365.354 60.8344 363.845 62.6533 362.62 64.66C361.47 66.38 359.62 67.42 358.71 69.14C358.466 70.0898 358.131 71.014 357.71 71.9C356.91 73.39 355.71 74.54 355.53 76.5L351.74 77.42C350.992 77.6371 350.219 77.7514 349.44 77.76C348.706 77.8927 348.018 78.2092 347.44 78.68C347.55 79.37 348.82 81.09 349.85 81.09C350.31 81.09 350.65 80.97 351.11 80.97C351.57 80.97 352.83 81.09 352.83 81.89C352.83 83.04 350.99 85.22 350.19 87.52C350.145 87.5653 350.11 87.6204 350.089 87.6811C350.069 87.7418 350.062 87.8064 350.07 87.87C350.07 88.21 350.3 88.56 350.3 88.87C349.933 89.4907 349.497 90.0677 349 90.59C348.631 91.6242 348.435 92.7121 348.42 93.81C348.42 95.07 347.27 96.57 346.58 97.49C346.01 98.18 346.35 99.21 346.12 100.02C345.44 101.675 344.845 103.364 344.34 105.08C344.21 105.08 343.74 105.68 343.67 105.68C343.44 105.68 343.25 105.99 342.9 106.11C341.98 106.34 338.42 111.28 337.04 112.55L335 114.15C333.85 115.15 334.2 115.3 333 116.45C331.991 117.486 330.875 118.411 329.67 119.21C328.777 119.828 327.748 120.223 326.67 120.36C326.096 120.402 325.525 120.239 325.06 119.9C324.06 119.21 323.68 118.18 323.68 116.34C323.669 115.725 323.706 115.11 323.79 114.5C323.79 113.58 323.56 112.09 323.56 110.94V110.14C323.974 108.681 324.206 107.176 324.25 105.66C324.25 104.74 324.48 103.48 324.48 102.56C324.505 102.248 324.464 101.935 324.36 101.64C324.265 101.423 324.223 101.186 324.24 100.95C324.288 100.475 324.406 100.01 324.59 99.57C324.688 98.8328 324.842 98.1041 325.05 97.39V96.8C325.156 94.8283 324.676 92.8693 323.67 91.17C323.122 90.4342 322.421 89.8267 321.614 89.3897C320.808 88.9528 319.916 88.6969 319 88.64C316.782 88.7653 314.657 89.5681 312.91 90.94C311.652 91.8914 310.496 92.9705 309.46 94.16C307.764 95.7199 306.151 97.3689 304.63 99.1C302.33 101.97 301.87 102.32 299.57 105.1C298.65 106.36 298.57 106.36 298.19 106.36C298.08 106.36 298.08 106.13 298.08 106.02C298.377 104.732 298.761 103.466 299.23 102.23C299.69 100.97 299.69 100.05 300.23 98.78C300.324 98.6022 300.363 98.4 300.34 98.2C300.322 97.8649 300.285 97.531 300.23 97.2C300.34 96.85 300.8 96.4 300.92 96.05C301.131 94.532 301.466 93.0338 301.92 91.57C302.654 89.5325 303.118 87.4078 303.3 85.25C303.07 84.25 302.61 83.64 301.69 83.64C300.884 83.7091 300.101 83.944 299.39 84.33C297.3 85.1821 295.53 86.6686 294.33 88.58C291.596 92.6112 288.589 96.4502 285.33 100.07C284.53 100.99 283.61 102.25 282.69 103.17C281.54 104.32 281.69 104.55 281.08 105.17C280.47 105.79 280.16 105.86 279.7 106.32C279.379 106.644 279.109 107.015 278.9 107.42C277.632 108.275 276.473 109.283 275.45 110.42C272.767 113.224 269.926 115.871 266.94 118.35C265.739 119.133 264.419 119.714 263.03 120.07C262.745 120.064 262.466 119.985 262.22 119.84C260.96 119.15 260.73 117.77 260.73 115.7C260.714 114.769 260.829 113.84 261.07 112.94C261.99 109.94 262.56 106.5 263.94 103.63C264.4 102.63 265.43 101.45 266.01 100.3C266.551 98.6852 267.282 97.1409 268.19 95.7C268.31 95.58 268.31 95.24 268.31 94.78C268.229 93.81 267.929 92.8712 267.431 92.0344C266.934 91.1976 266.253 90.4849 265.44 89.95C265.306 89.8568 265.143 89.8143 264.98 89.83C264.29 89.83 263.26 90.17 262.91 90.17C261.3 90.4 260.91 92.7 259.91 93.96C258.91 95.22 257.38 96.14 256.58 97.41C255.58 98.79 254.97 100.28 253.94 101.66C253.13 102.92 251.41 104.19 250.61 105.34C249.669 106.429 248.668 107.464 247.61 108.44C246.947 108.939 246.256 109.4 245.54 109.82C244.85 110.4 244.39 111.2 243.7 111.82C242.7 112.74 241.4 113.31 240.25 114.23C239.9 114.46 239.9 115.15 239.56 115.49C238.07 116.98 235.08 119.28 234.16 119.28C233.47 119.28 232.67 119.16 232.55 118.36C232.55 116.06 235.65 107.36 238.07 103.65C238.65 102.85 238.42 101.93 238.76 101.01C238.88 100.55 239.34 99.86 239.34 99.75C239.34 98.75 241.98 95.61 241.98 94.23C241.944 93.3733 242.059 92.5169 242.32 91.7C242.686 91.0631 242.921 90.3592 243.01 89.63C243.044 89.3058 242.963 88.9799 242.78 88.71C242.43 88.14 240.71 87.56 239.56 87.56C238.059 87.9559 236.626 88.5762 235.31 89.4C233.82 90.32 232.9 90.09 231.31 91.12C230.686 91.8258 230.238 92.6686 230 93.58C229.532 94.7083 228.781 95.6968 227.82 96.45C226.44 97.45 226.32 98.29 225.29 99.21C223.8 100.59 224.94 100.21 223.45 101.74L221.73 103.35C220.92 103.92 220.81 103.81 220.35 104.73C219.837 105.518 219.202 106.22 218.47 106.81C219.12 104.12 219.79 101.47 220.58 98.99C220.81 98.19 220.7 97.38 220.93 96.46C221.5 93.82 223.57 90.46 223.69 86.69C223.69 86.12 222.69 85.69 222.08 85.69C221.343 85.7883 220.614 85.9421 219.9 86.15C218.646 86.6492 217.481 87.3483 216.45 88.22C215.45 88.91 215.76 90.4 214.96 91.55C214.16 91.55 213.96 90.4 210.13 89.14C209.074 88.8974 207.993 88.78 206.91 88.79C204.859 88.7524 202.811 88.9844 200.82 89.48C198.466 90.2061 196.222 91.249 194.15 92.58C193.661 93.0105 193.2 93.4714 192.77 93.96C192.19 94.53 191.16 94.88 190.47 95.57C190.24 95.8 190.12 96.37 189.89 96.49C189.09 97.29 187.71 97.64 186.89 98.67C186.07 99.7 185.4 101.67 184.36 102.67C183.902 103.15 183.515 103.692 183.21 104.28C182.75 104.86 182.86 105.89 182.06 106.58C181.266 107.733 180.596 108.967 180.06 110.26C179.36 110.89 178.77 111.84 178.12 112.32C176.306 113.978 174.386 115.515 172.37 116.92C167.31 120.25 166.28 121.4 161.91 122.21C161.19 122.337 160.461 122.414 159.73 122.44C158.24 122.44 156.51 121.75 155.94 118.65C155.84 117.928 155.8 117.199 155.82 116.47C155.815 115.974 155.875 115.48 156 115C156.169 113.892 156.478 112.81 156.92 111.78C158.18 110.78 158.76 111.55 160.02 110.63C160.645 110.079 161.341 109.615 162.09 109.25C162.55 109.02 163.59 109.02 163.7 108.91C165.568 108.17 167.253 107.034 168.64 105.58C168.91 105.114 169.247 104.689 169.64 104.32C169.99 103.63 171.13 103.06 171.64 102.32C172.15 101.58 172.1 100.32 172.79 99.56C173.098 99.2267 173.432 98.919 173.79 98.64C174.614 97.3758 175.052 95.899 175.05 94.39C175.061 92.946 174.529 91.5505 173.56 90.48C172.957 89.8372 172.227 89.3273 171.416 88.9829C170.605 88.6385 169.731 88.4672 168.85 88.48C165.667 88.6385 162.574 89.587 159.85 91.24C157.92 92.7431 156.147 94.4385 154.56 96.3C153.895 96.9112 153.313 97.6072 152.83 98.37C152.26 99.29 152.26 99.75 151.91 100.37C151.79 100.6 150.76 101.29 150.65 101.52C149.372 103.483 148.363 105.609 147.65 107.84C147.08 109.22 147.19 110.37 146.85 111.84C146.079 114.233 146.079 116.807 146.85 119.2C147.044 119.894 147.312 120.564 147.65 121.2C148.46 123.84 150.06 124.88 153.05 125.68C153.28 125.68 156.15 126.02 156.38 126.02C156.61 126.02 156.72 126.14 156.95 126.14C157.95 126.14 158.95 125.45 159.71 125.45C159.94 125.45 160.28 125.57 160.51 125.57C163.15 125.57 165.45 123.85 167.75 123.73C168.56 123.73 170.85 121.43 171.66 120.97C172.24 120.51 173.04 120.51 173.73 120.05C174.73 119.36 176.95 116.37 177.87 115.8C178.091 115.619 178.333 115.465 178.59 115.34C178.348 116.707 178.224 118.092 178.22 119.48C178.178 121.211 178.614 122.92 179.48 124.42C179.935 124.945 180.501 125.362 181.138 125.641C181.775 125.919 182.465 126.052 183.16 126.03C185.69 126.03 188.45 124.42 189.6 123.73C191.9 122.24 193.74 120.51 195.92 119.02C196.879 118.349 197.764 117.578 198.56 116.72C198.747 116.312 198.978 115.927 199.25 115.57C199.6 115.11 200.17 115.11 200.51 114.77C202.686 113.053 204.653 111.086 206.37 108.91C207.244 107.933 208.049 106.898 208.78 105.81H209.24C208.855 107.094 208.548 108.399 208.32 109.72C208.333 110.472 208.175 111.217 207.86 111.9C207.554 112.708 207.398 113.566 207.4 114.43C207.4 115.58 206.4 116.27 206.4 117.53C206.4 120.53 202.4 132.47 202.03 133.62C201.57 135.11 201.57 135.34 201.03 136.95C200.048 137.408 199.003 137.718 197.93 137.87C193.123 139.148 188.457 140.903 184 143.11C182.393 143.623 180.82 144.238 179.29 144.95C178.37 145.29 176.99 146.44 176.19 146.67C175.562 147.197 175.019 147.818 174.58 148.51C173.798 148.808 172.991 149.039 172.17 149.2C171.25 149.77 170.33 151.04 169.41 151.5C168.03 152.5 166.41 152.99 165.04 154.14C163.66 155.06 161.71 156.9 160.1 157.93C157.103 160.245 154.415 162.933 152.1 165.93C151.3 166.85 151.1 167.93 150.1 168.8C148.654 170.634 147.457 172.652 146.54 174.8C145.27 177.67 145.04 179.51 144.93 183.07V183.76C144.807 186.459 145.663 189.112 147.34 191.23C149.64 194.1 153.55 195.02 156.42 195.14C157.082 195.237 157.751 195.277 158.42 195.26C159.036 195.274 159.651 195.234 160.26 195.14C161.75 195.02 162.33 194.14 163.94 193.99C167.04 193.64 171.18 193.19 174.63 191.12C182.79 186.29 187.28 182.04 192.91 174.57C193.37 173.88 193.14 173.19 193.48 172.27C193.568 171.992 193.686 171.724 193.83 171.47C194.06 171.01 195.09 170.78 195.55 170.09C195.78 169.74 195.55 169.52 195.9 169.29C196.474 168.962 197.014 168.577 197.51 168.14L202.68 157.8C203.37 156.88 203.26 155.96 203.68 154.8C203.91 154.34 204.49 153.88 204.83 153.31C205.75 151.24 205.75 151.59 206.55 149.52C207.35 147.45 209.42 142.39 210.11 140.33C211.445 139.902 212.853 139.746 214.25 139.87C217.375 139.809 220.475 140.437 223.33 141.71C224.02 142.06 224.02 143.55 224.71 144.01C225.104 144.417 225.635 144.663 226.2 144.7C226.738 144.645 227.252 144.448 227.69 144.13C227.884 143.935 228.036 143.702 228.135 143.445C228.235 143.189 228.281 142.915 228.27 142.64C228.159 141.552 227.671 140.536 226.89 139.77C226.2 139.08 224.25 137.36 223.21 137.36C222.75 137.24 221.71 137.48 221.21 136.9C219.038 136.308 216.79 136.039 214.54 136.1C213.39 136.1 211.78 136.22 210.98 136.22C211.56 134.15 212.48 130.22 213.39 127.49C213.588 126.733 213.741 125.965 213.85 125.19C213.913 124.013 214.145 122.851 214.54 121.74C215.77 118.12 216.54 114.58 217.54 110.36C217.62 110.36 218.02 110.07 218.11 110.07C218.92 110.07 219.16 109.5 220.5 108.98C223.03 106.22 225.33 103.92 227.63 101.17C228.09 100.6 228.43 100.25 228.78 100.25C229.13 100.25 229.01 100.37 229.13 100.6C229.13 101.52 227.52 104.05 226.72 105.89C225.57 108.3 225.11 110.6 223.96 113.13C222.617 116.062 221.836 119.22 221.66 122.44V123.44C221.89 125.44 224.19 126.89 226.37 126.89C227.194 126.874 228.008 126.718 228.78 126.43C229.13 126.43 229.78 126.66 230.04 126.66C230.244 126.615 230.44 126.537 230.62 126.43C232.8 125.17 233.49 123.67 235.91 122.18C237.52 121.18 239.13 119.42 240.74 118.27C241.74 117.47 242.58 116.2 243.74 115.4C244.54 114.71 245.12 114.71 245.92 113.91C246.5 113.34 246.84 112.53 247.53 112.07C249.098 110.989 250.592 109.803 252 108.52C252.045 108.475 252.1 108.44 252.161 108.419C252.222 108.399 252.286 108.392 252.35 108.4C252.58 108.4 252.7 108.52 252.7 108.86C252.586 109.547 252.392 110.219 252.12 110.86C251.47 112.744 251.159 114.728 251.2 116.72C251.203 118.638 251.762 120.514 252.81 122.12C253.5 123.27 254.99 123.04 256.14 123.96C256.49 124.3 256.37 124.53 256.83 124.65C257.697 124.835 258.584 124.912 259.47 124.88C261.31 124.88 262.92 124.54 263.38 124.08C263.95 123.85 264.76 123.16 265.22 122.93C265.928 122.713 266.62 122.446 267.29 122.13C267.98 121.67 268.67 120.87 269.36 120.41L270.51 120.06C271.102 119.494 271.571 118.814 271.89 118.06C272.69 116.91 274.19 116.34 275.34 115.53C275.92 115.07 275.57 114.38 276.15 113.92C277.012 112.983 277.967 112.135 279 111.39C279.679 110.918 280.232 110.286 280.61 109.55C280.74 109.408 280.857 109.254 280.96 109.09C281.131 109.055 281.289 108.975 281.42 108.86C282.23 108.28 282.42 107.6 283.49 106.45L285.9 104.27C286.7 103.58 287.39 102.43 288.43 101.4C289.47 100.37 289.93 98.99 290.43 98.64C291.7 97.72 292.04 97.15 292.43 97.03C292.54 97.03 292.66 97.15 292.77 97.15C292.43 98.87 290.59 100.94 289.77 104.05C289.42 104.74 289.65 105.66 289.31 106.58C288.16 109.22 287.01 112.44 285.98 114.85C285.64 115.54 285.87 116.46 285.64 117.03C284.72 118.75 284.38 117.83 283.23 122.78C283.12 123.24 283.12 124.39 283 124.85C283 126.11 285.07 126.57 286.1 126.57H286.67C288.17 126.22 291.04 126.11 291.84 125.88C293.1 125.42 293.22 123.12 293.84 121.74C293.944 121.487 293.985 121.212 293.96 120.94C293.932 120.629 293.97 120.316 294.07 120.02C294.19 119.68 294.88 119.33 295.07 119.02C296.07 117.64 296.33 115.92 297.6 114.31C299.192 111.841 300.918 109.461 302.77 107.18C303.46 106.61 303.69 105.8 304.27 105.34C304.61 104.88 305.19 104.77 305.65 104.34C305.778 104.13 305.856 103.894 305.88 103.65C305.88 103.54 305.99 103.19 307.14 102.16L307.94 100.55C308.553 99.9501 309.223 99.4109 309.94 98.94C310.94 98.14 310.86 97.56 311.94 96.53C312.597 96.0002 313.399 95.6797 314.24 95.61C314.93 95.61 315.85 96.76 315.85 98.37C315.85 101.13 314.7 103.31 314.59 106.64C314.48 109.05 314.48 110.43 314.48 111.58V115.26C314.461 116.261 314.498 117.263 314.59 118.26C314.59 118.61 315.16 119.18 315.28 119.52C315.372 119.738 315.41 119.975 315.39 120.21C315.39 120.67 315.28 121.13 315.28 121.47C315.318 121.746 315.396 122.016 315.51 122.27C316.06 123.45 316.939 124.446 318.04 125.14C318.73 125.6 321.72 125.94 323.1 125.94C324.486 125.709 325.832 125.285 327.1 124.68C327.44 124.56 327.9 123.99 328.25 123.88C329 123.542 329.728 123.158 330.43 122.73C332.27 121.555 333.933 120.124 335.37 118.48L336.86 117.22C337.55 116.42 339.04 115.04 340.42 113.54C340.65 113.31 340.88 112.62 341.11 112.39C341.34 112.16 341.91 111.93 342.26 111.59C342.4 111.47 342.61 111.28 342.84 111.06C342.445 112.709 342.138 114.378 341.92 116.06C341.92 116.86 342.04 117.55 342.04 118.36C341.81 118.48 341.69 118.93 341.69 119.36C341.705 119.746 341.745 120.13 341.81 120.51C341.678 120.916 341.637 121.346 341.69 121.77C342.04 132.57 344.69 137.97 351.23 142.69C352.412 143.372 353.69 143.874 355.02 144.18C355.25 144.18 355.71 144.3 355.94 144.3C356.167 144.319 356.396 144.292 356.613 144.221C356.83 144.15 357.03 144.036 357.202 143.885C357.373 143.735 357.513 143.552 357.612 143.346C357.712 143.141 357.769 142.918 357.78 142.69C357.797 142.454 357.755 142.217 357.66 142C357.527 141.634 357.297 141.312 356.994 141.069C356.69 140.825 356.326 140.67 355.94 140.62C355.48 140.62 355.02 140.74 354.45 140.74C354.051 140.764 353.652 140.705 353.276 140.568C352.901 140.43 352.559 140.216 352.27 139.94C350.78 138.45 350.2 137.76 350.2 136.84C350.2 135.69 349.28 134.2 349.28 133.39C348.93 130.29 349.16 128.33 348.93 127.18C348.794 126.522 348.717 125.852 348.7 125.18C348.7 122.18 349.97 118.97 350.19 115.76C350.493 114.713 350.919 113.706 351.46 112.76C352.61 110.58 352.95 108.51 353.76 106.09C354.57 103.67 355.25 100.92 356.17 98.28C356.778 96.5836 357.507 94.9328 358.35 93.34C358.687 92.4915 358.919 91.6049 359.04 90.7L360.54 87.7C361 86.57 361 85 361.66 84C362.722 82.6411 363.575 81.1311 364.19 79.52C365.68 79.06 366.49 79.17 368.19 78.72C368.605 78.6172 369.033 78.5768 369.46 78.6H371.46C371.96 78.4394 372.477 78.3387 373 78.3C374.49 78.18 374 77.84 376.45 77.5C377.306 77.2128 378.192 77.0216 379.09 76.93C379.581 77.0374 380.079 77.1142 380.58 77.16C381.39 77.16 381.73 77.04 382.08 77.04C382.516 77.0899 382.941 77.208 383.34 77.39C383.932 77.3658 384.522 77.4824 385.06 77.73C385.52 77.96 385.75 78.31 386.21 78.53C386.374 78.6444 386.51 78.7931 386.611 78.9658C386.711 79.1386 386.772 79.3311 386.79 79.53C386.79 80.53 386.44 81.71 386.67 81.71C387.318 81.571 387.914 81.2521 388.39 80.79C389.54 79.53 390.23 79.41 390.46 76.88C390.46 74.24 387.13 73.43 384.6 73.2L384.66 73.24ZM199 141.62C198.577 143.428 197.903 145.168 197 146.79C195.919 150.423 194.535 153.959 192.86 157.36C192.388 158.05 192.074 158.835 191.94 159.66C191.59 160.46 190.56 161.5 190.33 162.42C190.202 162.74 190.125 163.077 190.1 163.42C188.694 166.409 186.831 169.162 184.58 171.58C184.35 171.81 184.12 171.93 184.01 172.16C183.09 173.42 181.71 175.84 180.45 176.87C179.99 177.21 179.76 177.87 179.19 178.36C178.39 179.05 177.81 180.36 176.89 181C176.369 181.265 175.87 181.572 175.4 181.92C172.64 184.22 171.61 184.68 170 185.92C166.234 188.921 161.594 190.617 156.78 190.75C155.576 190.832 154.37 190.636 153.253 190.179C152.137 189.721 151.14 189.013 150.34 188.11C149.19 186.96 148.85 184.89 148.85 182.48C148.832 181.079 149.027 179.682 149.43 178.34C151.15 173.86 151.15 173.28 153.57 169.95C154.57 168.69 156.21 166.95 156.44 166.16C156.67 165.37 158.51 164.9 159.31 163.98C160.12 163.4 160.12 162.37 160.69 161.91C162.69 160.42 164.6 158 166.9 156.62C168.352 155.5 169.89 154.497 171.5 153.62C174.72 151.78 177.94 149.48 180.5 147.87C181.411 147.419 182.376 147.083 183.37 146.87C185.333 145.808 187.368 144.886 189.46 144.11C190.96 143.11 192.46 143.11 194.29 142.62C194.75 142.5 195.44 141.7 196.13 141.62C196.47 141.62 197.39 141.96 197.62 141.96C197.85 141.96 198.62 141.62 199 141.62ZM157.7 106.91C157.7 104.5 158.5 104.61 159.31 103C160 101.74 159.77 100.7 160.8 99.78C161.26 99.32 161.95 98.98 162.41 98.52C162.64 98.17 162.53 97.6 162.87 97.26C163.79 96.68 164.25 96.91 165.63 95.77C166.55 95.08 166.78 94.51 167.63 93.77C168.48 93.03 168.78 92.85 169.35 92.85C169.7 92.85 169.93 92.85 170.04 92.97C170.243 93.1833 170.4 93.4367 170.5 93.7139C170.6 93.9911 170.641 94.2861 170.62 94.58C170.356 97.8325 168.878 100.867 166.48 103.08C166.13 103.43 165.9 104 165.56 104.23C164.679 104.891 163.714 105.433 162.69 105.84C161.555 106.423 160.361 106.885 159.13 107.22C158.648 107.231 158.172 107.113 157.75 106.88L157.7 106.91ZM212 94.62C211.65 97.62 209.7 98.41 208.32 101.06C207.514 102.462 206.464 103.708 205.22 104.74C204.87 105.08 204.99 105.74 204.41 106.74C203.83 107.74 202 109 201 110.13C200.77 110.36 200.08 110.25 199.85 110.47C199.764 110.769 199.727 111.079 199.74 111.39C199.16 112.31 197.74 112.65 197.21 113.39C196.86 113.74 196.98 114.19 196.75 114.54C196.4 115.23 195.03 115.54 194.45 116.15C193.53 116.72 192.95 118.15 191.92 118.79C190.31 119.71 189.51 120.86 187.55 120.86C187.283 120.874 187.018 120.804 186.793 120.661C186.567 120.517 186.391 120.307 186.29 120.06C186.188 119.648 186.148 119.224 186.17 118.8C186.17 116.96 186.98 115.8 188.01 113.97C189.04 112.14 188.93 110.64 190.01 108.68C190.36 108.11 191.73 107.19 192.19 106.61C192.676 105.501 193.353 104.485 194.19 103.61C194.815 102.787 195.507 102.018 196.26 101.31C196.38 101.19 196.38 100.85 196.38 100.62C196.36 100.385 196.398 100.148 196.49 99.93C196.95 99.47 198.22 99.47 198.79 98.78C200.79 96.94 202.7 94.87 205 93.72C206.188 93.1602 207.477 92.8472 208.79 92.8C210.51 92.8 212.01 92.8 212.01 94.64L212 94.62ZM148.28 68.76C149.089 66.1611 149.589 63.4759 149.77 60.76C149.793 59.4524 149.52 58.1566 148.97 56.97C148.317 55.6918 147.463 54.527 146.44 53.52C144.868 52.5866 143.087 52.0639 141.26 52C137.47 52 132.52 53.49 130.11 55.56C129.53 56.02 129.65 56.25 129.19 56.82C128.96 57.17 128.27 57.05 128.04 57.17C125.696 58.6759 123.6 60.5383 121.83 62.69C120.892 63.8927 119.891 65.0444 118.83 66.14C118.37 66.6 118.25 67.75 117.83 68.14C117.26 68.71 116.22 68.94 115.76 69.63C115.07 70.89 111.62 74.92 111.28 76.18C110.7 77.1 110.59 78.02 109.9 78.71C109.21 79.4 106.11 84.71 104.96 85.71C103.35 88.12 102.09 89.62 101.4 91C101.17 91.34 100.02 93.3 99.56 93.3C99.44 93.3 99.44 93.18 99.44 92.95C99.44 92.15 99.9 92.49 99.9 91.23C99.8942 90.6384 100.013 90.0523 100.25 89.51C100.399 88.9838 100.654 88.4937 101 88.07C101.46 87.15 101.23 86.46 101.8 85.54C102.03 84.85 103.07 83.93 103.07 83.24C103.17 82.4006 103.21 81.5551 103.19 80.71C103.31 78.99 105.37 76.92 105.6 75.08C105.6 74.39 105.26 73.7 105.26 73.01C105.26 72.9 105.37 72.67 105.37 72.55C105.49 71.98 106.52 71.63 106.64 71.17C106.87 70.17 110.2 62.32 110.32 59.45V58C110.44 56.74 111.47 54.78 111.47 50.3C111.47 47.3 108.37 44.44 105.47 43.06C104.444 42.6634 103.35 42.4698 102.25 42.49C100.102 42.458 97.9636 42.7963 95.93 43.49C92.46 45.1874 89.2151 47.3104 86.27 49.81C84.89 50.73 84.09 52.34 82.82 53.6C82.02 54.52 80.29 54.98 80.06 56.13C79.83 57.51 77.99 57.85 77.06 59.23C76.26 60.23 72.69 64.17 72.35 65.67C72 66.67 71.54 66.36 70.86 67.28C69.59 69.12 65.8 74.63 64.31 76.36C62.31 78.66 61.78 80.04 60.17 81.99C60.63 80.84 61.09 80.15 61.66 78.54C62.23 76.93 62.12 75.32 62.66 73.83C62.78 73.49 63.66 72.83 63.81 72.57V70.27C63.93 69.7 64.73 68.55 64.81 67.74C65.62 64.41 65.16 60.39 66.07 57.28C66.4625 56.0553 66.6583 54.7761 66.65 53.49C66.6643 52.7614 66.6242 52.0327 66.53 51.31C66.53 51.08 66.41 50.74 66.41 50.51C66.1093 46.9597 64.9678 43.5319 63.08 40.51C60.9749 36.8846 57.5783 34.188 53.57 32.96C53.22 32.52 52.57 32.3 51.15 32.16L50.2 32.28H49.96C48.75 31.95 48.24 32.16 48.17 32.66C45.8198 33.1948 43.5335 33.9793 41.35 35C40.52 35.33 39.53 35.28 38.51 35.64C38.4 35.54 38.21 36.06 37.92 36.1C37.82 36.1 37.19 35.73 37.11 35.85C36.63 36.0476 36.1254 36.1788 35.61 36.24C35.32 36.24 31.35 37.33 31.35 37.33C27.69 38.73 29.78 37.21 27.42 38.33L24.42 39.63C23.832 39.9228 23.2005 40.1186 22.55 40.21C21.9425 40.423 21.4059 40.8003 21 41.3C21.18 42 22 45 22.82 44.91C23.12 44.91 23.66 43.81 24.06 43.39C24.1694 43.3598 24.2671 43.297 24.34 43.21C25.2085 42.6919 26.1305 42.2695 27.09 41.95V41.85C27.9046 41.5414 28.74 41.2908 29.59 41.1L34.94 39.35C36.13 38.74 35.03 40.17 36.41 39.54C37.3693 39.3183 38.341 39.1547 39.32 39.05L40.94 38.85C41.3429 38.6182 41.7775 38.4464 42.23 38.34C43.46 38.07 43.03 37.78 45 37.19C45.6703 36.8183 46.3864 36.5359 47.13 36.35C47.5508 36.408 47.9753 36.4347 48.4 36.43C49.07 36.35 49.34 36.2 49.63 36.16C49.9166 36.1497 50.2023 36.1973 50.47 36.3C50.857 36.7229 51.2676 37.1236 51.7 37.5C52.5 38.19 52.62 39.11 53.31 39.91C54 40.91 55.49 43.01 55.84 43.7C56.8418 45.6475 57.3533 47.8101 57.33 50C57.2961 51.5794 57.1423 53.1539 56.87 54.71C56.41 56.89 56.75 58.96 56.29 61.15C55.6 64.48 53.65 68.27 52.84 71.61C52.6219 72.5552 52.4682 73.514 52.38 74.48C51.58 77.48 49.74 80.69 48.47 83.67V85C48.1803 85.81 47.7942 86.5823 47.32 87.3C44.32 93.16 43.53 99.14 41.11 104.3C39.73 107.52 38.24 111.54 36.97 114.76C36.4 116.14 36.74 116.94 36.28 118.21C36.2514 118.383 36.1713 118.543 36.05 118.67C35.3322 120.182 34.9404 121.827 34.9 123.5C34.8636 124.083 34.9417 124.667 35.13 125.22C35.36 126.71 37.77 128.09 39.04 128.78C39.5862 129.143 40.2242 129.344 40.88 129.36C41.3946 129.34 41.9005 129.222 42.37 129.01C43.29 128.32 43.17 127.4 43.63 126.37C44.1927 125.37 44.6904 124.334 45.12 123.27C45.4676 122.707 45.702 122.082 45.81 121.43C45.81 120.63 46.61 120.17 47.3 118.43C47.3895 118.105 47.4266 117.767 47.41 117.43C47.3949 117.043 47.4319 116.657 47.52 116.28C48.21 114.44 49.24 112.95 50.28 110.42C50.85 109.27 50.62 108.12 51.28 107.09C51.51 106.63 51.74 106.52 52.2 106.17C52.7807 105.379 53.2799 104.531 53.69 103.64C53.6654 103.328 53.7062 103.015 53.81 102.72C54.04 102.15 54.81 101.57 55.08 101.11C55.54 99.96 55.31 99.27 55.77 97.89C56.3658 96.7968 57.0586 95.7593 57.84 94.79C58.3 93.99 58.19 93.07 58.84 92.26C59.53 91 61.02 90.08 61.84 88.7L62.19 87.44C62.88 86.06 63.8 85.26 64.49 83.99C65.18 83.19 64.84 82.15 65.64 81.81C66.5819 81.0673 67.396 80.1755 68.05 79.17C68.17 79.06 68.28 79.06 69.2 77.68C69.66 77.1 69.31 76.19 69.77 75.61C70.23 75.03 71.04 74.92 71.49 74.46C71.94 74 71.84 73.31 72.3 72.97C72.6332 72.7777 72.9421 72.546 73.22 72.28C74.94 70.56 75.63 68.28 77.36 66.53C77.82 65.96 78.05 65.04 78.51 64.69C78.97 64.34 78.97 63.77 79.51 63.2C80.05 62.63 81 62.28 81.51 61.48C81.74 61.14 81.63 60.68 81.97 60.22C82.66 58.96 84.38 58.15 85.19 56.77C86.11 54.7 89.1 53.32 91.05 51.94C91.28 51.71 91.4 51.25 91.74 51.02C92.3785 50.7424 93.0511 50.5507 93.74 50.45C94.32 50.22 94.74 49.19 95.35 48.84C96.2617 48.2349 97.2796 47.8074 98.35 47.58C98.6088 47.4846 98.8846 47.4437 99.16 47.46C99.4948 47.4605 99.8229 47.5543 100.107 47.7309C100.392 47.9076 100.621 48.1601 100.77 48.46C101.121 49.1735 101.28 49.9663 101.23 50.76C101.113 52.2942 100.731 53.7965 100.1 55.2C99.64 56.35 99.18 60.83 97.57 64.74L95.5 69.57C94.01 73.71 92.63 78.42 91.5 82.57C91.27 83.37 91.38 84.18 91.15 85.1C90.46 87.51 89.66 87.1 88.05 92.34C87.05 95.44 85.98 98.66 85.18 101.53C84.7189 102.805 84.3251 104.104 84 105.42C84 105.53 83.88 105.65 83.88 105.76C83.08 108.86 82.27 112.08 81.24 115.18C80.289 117.743 79.6185 120.402 79.24 123.11V124.11C79.1541 124.816 79.2747 125.532 79.587 126.171C79.8994 126.809 80.3902 127.344 81 127.71C82.6097 128.808 84.4637 129.494 86.4 129.71C87.058 129.742 87.7082 129.557 88.2504 129.183C88.7926 128.809 89.1966 128.267 89.4 127.64C89.75 126.15 90.67 124.08 91.24 121.43C91.6045 120.383 91.8756 119.305 92.05 118.21C92.05 116.49 93.89 114.76 94.58 113.15C95.16 112 95.5 109.59 96.42 108.67C97.23 107.41 97.34 105.8 98.14 104.53C98.49 104.07 99.52 103.53 99.75 102.92C100.023 102.474 100.143 101.951 100.09 101.43C100.09 100.51 100.78 100.28 101.09 99.59C101.139 99.0798 101.257 98.5787 101.44 98.1C101.67 97.75 102.13 97.64 102.36 97.41C103.05 96.61 102.94 95.69 103.51 94.88C104.32 93.62 105.92 92.47 106.73 91.2C107.42 90.2 107.88 89.2 108.45 88.2C108.68 87.74 109.45 87.2 109.83 86.59C109.891 85.9674 110.008 85.3515 110.18 84.75C110.53 83.83 112.36 83.14 112.82 82.22C113.048 81.5535 113.166 80.8544 113.17 80.15L114.17 79.92C114.75 79 114.75 78.08 115.44 77.05C116.924 75.9787 118.176 74.618 119.12 73.05C119.69 72.13 119.92 71.05 120.73 70.41C121.19 70.07 121.73 69.95 122.11 69.49C122.49 69.03 122.34 68.49 122.8 67.88C123.6 66.96 124.87 66.5 125.8 65.7C126.73 64.9 126.61 64.55 127.8 63.52L130.21 61.34C132.28 59.5 133.66 58.34 135.73 58.24C136.88 58.24 137.45 58.59 137.73 59.04C137.927 59.5526 138.005 60.1029 137.96 60.65C137.96 62.37 136.7 65.59 135.96 67.77C135.73 68.57 135.84 69.26 135.61 69.95C135.49 70.29 134.69 70.95 134.61 71.21L133.91 74C132.91 76.76 131.5 80.21 130.58 83.19C129.09 88.36 127.36 94.45 125.98 101.69C124.948 106.729 124.406 111.856 124.36 117C124.36 122.17 125.05 127.11 127 130.79C128.95 134.47 131.14 137.23 132.06 137.79C132.41 138.02 132.41 138.48 132.64 138.71C134.02 139.63 138.27 141.12 142.18 141.93C143.957 142.296 145.766 142.487 147.58 142.5C148.119 142.522 148.66 142.481 149.19 142.38C151.128 142.297 153.053 142.03 154.94 141.58C157.01 141 160.46 139.97 162.07 138.48C162.694 137.745 163.022 136.804 162.99 135.84C162.872 135.542 162.667 135.287 162.401 135.108C162.135 134.929 161.82 134.836 161.5 134.84C159.89 134.84 159.66 136.33 158.17 137.14C155.658 138.511 152.869 139.298 150.01 139.44C148.035 139.356 146.089 138.929 144.26 138.18C144.14 138.06 143.8 138.06 143.45 138.06C143.1 138.06 142.76 138.18 142.3 138.18C141.61 137.6 141.72 137.03 140.81 136.69C140.12 136.46 135.98 131.52 135.98 130.94C135.958 130.401 135.999 129.86 136.1 129.33C136.1 127.84 134.72 126 134.72 124.5C134.72 123.58 134.84 122.66 134.84 121.74C134.96 117.14 134.72 110.82 135.84 107.15C136.3 105.89 136.19 104.05 136.76 103.01C136.76 102.78 137.56 102.32 137.68 102.01C138.126 99.9297 138.397 97.8156 138.49 95.69C138.49 95 138.26 94.2 138.26 93.51C138.253 93.0651 138.375 92.6278 138.61 92.25C138.96 91.68 139.87 91.68 140.22 91.33C140.447 91.0531 140.615 90.7331 140.715 90.3894C140.814 90.0456 140.843 89.6853 140.8 89.33C140.8 88.64 140.68 87.95 140.68 87.26C140.623 86.6502 140.787 86.0402 141.14 85.54C141.49 85.19 142.06 85.08 142.41 84.62C142.98 83.82 142.64 82.62 142.87 81.75C143.149 81.3105 143.456 80.8896 143.79 80.49C144.639 79.2274 145.262 77.8265 145.63 76.35V74.74C145.63 74.05 147.01 73.02 147.01 72.56C147.01 72.1 146.89 71.87 146.89 71.56C146.873 71.3623 146.914 71.1639 147.01 70.99C147.473 70.2888 147.893 69.5609 148.27 68.81L148.28 68.76Z" fill="white"/>
</svg>
