<svg width="592" height="194" viewBox="0 0 592 194" fill="none" xmlns="http://www.w3.org/2000/svg">
<g clip-path="url(#clip0_108_1284)">
<path d="M256.41 190.14C256.148 190.281 255.925 190.487 255.763 190.736C255.6 190.986 255.503 191.273 255.48 191.57V193.25C255.48 193.75 255.74 194 256.26 194H264.26C264.88 194 265.19 193.727 265.19 193.18V191.57C265.174 191.272 265.08 190.984 264.919 190.733C264.758 190.483 264.534 190.278 264.27 190.14C263.825 189.832 263.467 189.414 263.231 188.927C262.994 188.44 262.887 187.9 262.92 187.36V144.11L270.48 194H273.32L281 144.11V187.36C281.027 187.903 280.914 188.443 280.672 188.93C280.431 189.416 280.068 189.833 279.62 190.14C279.366 190.287 279.152 190.494 278.996 190.744C278.841 190.993 278.75 191.277 278.73 191.57V193.25C278.715 193.352 278.724 193.456 278.756 193.554C278.788 193.652 278.843 193.741 278.916 193.814C278.989 193.887 279.078 193.942 279.176 193.974C279.274 194.006 279.378 194.015 279.48 194H290.22C290.84 194 291.15 193.727 291.15 193.18V191.57C291.136 191.276 291.047 190.99 290.891 190.739C290.735 190.489 290.518 190.283 290.26 190.14C289.806 189.839 289.438 189.423 289.194 188.935C288.95 188.448 288.838 187.904 288.87 187.36V145.12C288.845 144.584 288.957 144.051 289.195 143.57C289.433 143.089 289.789 142.676 290.23 142.37C290.495 142.224 290.719 142.014 290.882 141.759C291.045 141.504 291.14 141.212 291.16 140.91V139.27C291.16 138.77 290.9 138.52 290.38 138.52H277.38L273.38 164.52L269.38 138.52H256.41C255.79 138.52 255.48 138.793 255.48 139.34V140.91C255.494 141.213 255.587 141.508 255.751 141.764C255.914 142.02 256.141 142.229 256.41 142.37C256.855 142.672 257.214 143.084 257.453 143.566C257.691 144.048 257.8 144.583 257.77 145.12V187.35C257.797 187.891 257.686 188.429 257.448 188.915C257.211 189.402 256.853 189.819 256.41 190.13V190.14ZM301.53 187.04C301.433 187.646 301.212 188.226 300.88 188.742C300.547 189.259 300.112 189.701 299.6 190.04C299.371 190.15 299.177 190.322 299.04 190.535C298.902 190.749 298.826 190.996 298.82 191.25V193.11C298.82 193.683 299.237 193.97 300.07 193.97H307.52C308.187 193.97 308.52 193.683 308.52 193.11V191.54C308.52 191.113 308.187 190.613 307.52 190.04C306.453 189.187 305.92 188.403 305.92 187.69C305.923 187.458 305.95 187.227 306 187L307.49 179.83H316.81L318.3 187.28C318.344 187.551 318.367 187.825 318.37 188.1C318.351 188.532 318.21 188.95 317.962 189.304C317.714 189.659 317.37 189.935 316.97 190.1C316.203 190.48 315.82 190.943 315.82 191.49V193.06C315.82 193.633 316.153 193.92 316.82 193.92H328.73C329.183 193.92 329.41 193.633 329.41 193.06V191.49C329.387 191.244 329.299 191.009 329.155 190.809C329.01 190.609 328.816 190.45 328.59 190.35C328.03 190.053 327.539 189.641 327.15 189.14C326.83 188.553 326.619 187.913 326.53 187.25L316.86 138.88C316.767 138.453 316.553 138.24 316.22 138.24C316.109 138.238 316 138.262 315.9 138.31L309.9 141.13C309.54 141.297 309.36 141.5 309.36 141.74C309.36 141.833 309.417 142.273 309.53 143.06L309.86 145.48L301.53 187V187.04ZM315.94 175.3H308.55L312.28 157L315.94 175.3ZM350 169C350.898 170.248 351.491 171.691 351.73 173.21L356.61 192.82C356.645 193.143 356.8 193.44 357.045 193.653C357.29 193.866 357.606 193.979 357.93 193.97H365.04C365.146 193.985 365.254 193.975 365.355 193.941C365.457 193.907 365.549 193.85 365.625 193.775C365.7 193.699 365.757 193.607 365.791 193.505C365.825 193.404 365.835 193.296 365.82 193.19V191.19C365.83 191.059 365.806 190.927 365.75 190.808C365.694 190.688 365.608 190.586 365.5 190.51C364.867 190.158 364.323 189.665 363.91 189.07C363.436 188.144 363.099 187.153 362.91 186.13L360.31 174.82C359.948 172.897 359.148 171.083 357.97 169.52C356.729 168.148 355.217 167.048 353.53 166.29C360.197 164.197 363.53 159.57 363.53 152.41C363.53 147.917 362.15 144.48 359.39 142.1C356.63 139.72 352.61 138.53 347.33 138.53H338C337.38 138.53 337.07 138.803 337.07 139.35V140.92C337.084 141.223 337.177 141.518 337.341 141.774C337.504 142.03 337.731 142.239 338 142.38C338.445 142.682 338.804 143.094 339.043 143.576C339.281 144.058 339.39 144.593 339.36 145.13V187.36C339.387 187.901 339.276 188.439 339.038 188.925C338.801 189.412 338.443 189.829 338 190.14C337.738 190.281 337.515 190.487 337.353 190.736C337.19 190.986 337.093 191.273 337.07 191.57V193.25C337.07 193.75 337.33 194 337.85 194H349C349.62 194 349.93 193.727 349.93 193.18V191.57C349.913 191.271 349.818 190.982 349.655 190.732C349.492 190.481 349.266 190.277 349 190.14C348.553 189.833 348.193 189.416 347.955 188.929C347.717 188.442 347.608 187.901 347.64 187.36V168C348.088 167.997 348.532 168.084 348.946 168.256C349.36 168.428 349.736 168.681 350.05 169H350ZM353.25 144.73C354.477 146.003 355.09 148.67 355.09 152.73C355.09 156.79 354.483 159.667 353.27 161.36C352.057 162.98 350.167 163.79 347.6 163.79V142.84C350.147 142.84 352.03 143.477 353.25 144.75V144.73ZM383.83 145.1C383.8 144.563 383.909 144.028 384.147 143.546C384.386 143.064 384.745 142.652 385.19 142.35C385.455 142.204 385.679 141.994 385.842 141.739C386.005 141.484 386.1 141.192 386.12 140.89V139.25C386.12 138.75 385.86 138.5 385.34 138.5H374.22C373.6 138.5 373.29 138.773 373.29 139.32V140.89C373.31 141.192 373.405 141.484 373.568 141.739C373.73 141.994 373.955 142.204 374.22 142.35C374.665 142.652 375.024 143.064 375.263 143.546C375.501 144.028 375.61 144.563 375.58 145.1V187.33C375.612 187.871 375.503 188.412 375.265 188.899C375.027 189.386 374.667 189.803 374.22 190.11C373.954 190.247 373.728 190.451 373.565 190.702C373.402 190.952 373.307 191.241 373.29 191.54V193.22C373.29 193.72 373.553 193.97 374.08 193.97H385.2C385.82 193.97 386.13 193.697 386.13 193.15V191.54C386.107 191.243 386.01 190.956 385.847 190.706C385.685 190.457 385.462 190.251 385.2 190.11C384.757 189.799 384.399 189.382 384.162 188.895C383.924 188.409 383.813 187.871 383.84 187.33V166.13L391.19 187.39C391.322 187.745 391.393 188.121 391.4 188.5C391.4 189 390.947 189.593 390.04 190.28C389.804 190.459 389.613 190.69 389.483 190.956C389.353 191.221 389.286 191.514 389.29 191.81V192.92C389.29 193.633 389.67 193.99 390.43 193.99H402.27C403.01 193.99 403.38 193.657 403.38 192.99V191.81C403.335 191.432 403.201 191.07 402.989 190.753C402.777 190.437 402.493 190.175 402.16 189.99C400.528 188.82 399.312 187.159 398.69 185.25L389.77 159.25L395.35 147.99C396.493 145.636 398.425 143.757 400.81 142.68C401.265 142.48 401.692 142.221 402.08 141.91C402.29 141.64 402.386 141.3 402.35 140.96V139.53C402.35 138.863 401.98 138.53 401.24 138.53H390.73C390.11 138.53 389.8 138.863 389.8 139.53V140.96C389.828 141.251 389.927 141.53 390.089 141.773C390.252 142.015 390.472 142.214 390.73 142.35C391.323 142.777 391.62 143.17 391.62 143.53C391.607 144.103 391.46 144.665 391.19 145.17L383.84 160.37V145.17L383.83 145.1ZM436.08 181.1C436.097 180.979 436.085 180.856 436.046 180.741C436.007 180.625 435.942 180.52 435.856 180.434C435.77 180.348 435.665 180.283 435.549 180.244C435.434 180.205 435.311 180.193 435.19 180.21H433.65C433.03 180.21 432.603 180.637 432.37 181.49C431.343 185.27 430.487 187.583 429.8 188.43C429.113 189.277 427.877 189.7 426.09 189.7H421.28V167.17H422.71C423.441 167.127 424.167 167.32 424.78 167.72C425.28 168.087 425.743 169.117 426.17 170.81C426.278 171.388 426.47 171.948 426.74 172.47C426.836 172.57 426.953 172.646 427.083 172.693C427.214 172.739 427.353 172.756 427.49 172.74H429.13C429.246 172.755 429.364 172.743 429.475 172.705C429.585 172.667 429.686 172.604 429.768 172.521C429.85 172.437 429.912 172.336 429.949 172.225C429.986 172.114 429.996 171.996 429.98 171.88V158.43C429.98 157.837 429.67 157.54 429.05 157.54H427.5C427.28 157.512 427.058 157.55 426.86 157.65C426.683 158.002 426.552 158.375 426.47 158.76C426.216 160.065 425.732 161.314 425.04 162.45C424.443 162.912 423.69 163.123 422.94 163.04H421.3V142.84H425.8C427.847 142.84 429.207 143.507 429.88 144.84C430.611 146.337 431.088 147.946 431.29 149.6C431.36 150.27 431.68 150.6 432.29 150.6H433.61C433.923 150.641 434.24 150.585 434.52 150.44C434.63 150.33 434.68 150.01 434.68 149.44V139C434.68 138.57 434.29 138.36 433.5 138.36C433.287 138.36 432.763 138.397 431.93 138.47C431 138.54 430.37 138.58 430.04 138.58H411.66C411.087 138.58 410.8 138.807 410.8 139.26V140.97C410.813 141.265 410.902 141.551 411.058 141.801C411.214 142.052 411.431 142.258 411.69 142.4C412.127 142.714 412.478 143.133 412.709 143.62C412.94 144.106 413.043 144.643 413.01 145.18V187.41C413.054 187.887 412.987 188.367 412.814 188.813C412.64 189.259 412.365 189.659 412.01 189.98C411.223 190.573 410.83 191.12 410.83 191.62V193.19C410.813 193.307 410.824 193.426 410.861 193.538C410.899 193.65 410.961 193.752 411.045 193.835C411.128 193.919 411.23 193.981 411.342 194.019C411.454 194.056 411.573 194.067 411.69 194.05H436.1V181.15L436.08 181.1ZM462.4 142.61C462.846 142.562 463.296 142.623 463.713 142.788C464.129 142.954 464.499 143.219 464.79 143.56C465.457 144.807 465.904 146.161 466.11 147.56C466.243 148.342 466.416 149.116 466.63 149.88C466.74 150.19 467.06 150.34 467.63 150.34H469C469.62 150.34 469.93 150.007 469.93 149.34V138.7C469.93 138.11 469.61 137.81 468.93 137.81C468.79 137.81 468.007 137.917 466.58 138.13C465.653 138.297 464.87 138.427 464.23 138.52H451.61C450.127 138.473 448.65 138.32 447.19 138.06C446.354 137.908 445.509 137.811 444.66 137.77C443.9 137.77 443.52 138.173 443.52 138.98V149.36C443.52 150.027 443.923 150.36 444.73 150.36H446.12C446.21 150.374 446.302 150.369 446.39 150.345C446.478 150.322 446.56 150.28 446.631 150.222C446.702 150.165 446.759 150.093 446.801 150.012C446.842 149.93 446.865 149.841 446.87 149.75C447.323 146.757 447.83 144.82 448.39 143.94C448.664 143.508 449.048 143.157 449.504 142.925C449.96 142.693 450.47 142.587 450.98 142.62H452.55V187.31C452.576 187.85 452.465 188.389 452.227 188.875C451.989 189.361 451.633 189.779 451.19 190.09C450.928 190.231 450.705 190.437 450.543 190.686C450.38 190.936 450.283 191.223 450.26 191.52V193.2C450.26 193.7 450.52 193.95 451.04 193.95H462.17C462.79 193.95 463.1 193.677 463.1 193.13V191.52C463.083 191.221 462.988 190.932 462.825 190.682C462.662 190.431 462.436 190.227 462.17 190.09C461.723 189.784 461.362 189.366 461.124 188.879C460.885 188.392 460.777 187.851 460.81 187.31V142.66L462.4 142.61Z" fill="#969696"/>
<path d="M591.77 66.69C591.832 65.0078 591.661 63.325 591.26 61.69C590.69 59.98 589.08 55.51 588.96 54.78C588.79 53.69 585.78 48.91 585.68 48.42C585.081 47.5343 584.619 46.5634 584.31 45.54C584.15 44.79 581.87 42.54 581.94 42.14C580.45 41.74 573.23 34.67 572.54 34.14C570.38 32.46 562.94 27.87 561.03 27.8C560.7 27.8 554.75 25.65 551.2 24.63C552.31 24.95 550.28 24.26 549.06 24.12C546.979 23.881 544.932 23.4046 542.96 22.7C541.252 22.102 539.49 21.6667 537.7 21.4C535.14 20.93 527.12 19.05 525.41 19.13C524.29 19.19 512.41 18.43 511.03 18.35C510.27 18.35 509.47 18.35 508.7 18.35H504.14C501.69 18.35 498.41 17.83 496.02 18.35C495.02 18.56 485.53 19.11 483.75 19.11C480.61 19.43 477.489 19.914 474.4 20.56C473.22 20.84 466.48 22.83 465.59 22.98C462.59 23.5 445.36 28.79 443.47 30.05C442.3 30.83 441.4 31.12 440.23 31.93C439.511 32.569 438.68 33.0706 437.78 33.41C436.78 33.75 436.35 34.58 435.36 34.86C434.37 35.14 430.95 39 430.18 40C429.85 40.44 428.1 41.47 427.8 41.79C427.14 42.51 426.39 43.98 426.05 44.32C425.93 44.44 424.91 46.03 424.88 46.07C424.34 46.86 424.61 46.48 424.54 47.71C424.54 48.37 424.36 49.87 424.89 50.52C424.929 50.567 424.981 50.6017 425.04 50.62C425.211 51.3699 425.498 52.0885 425.89 52.75C426.32 53.49 426.89 54.21 427.42 54.91C427.802 55.5118 428.216 56.0926 428.66 56.65C428.832 56.8233 428.971 57.0267 429.07 57.25C429.095 57.3686 429.15 57.4788 429.23 57.57C429.449 57.7219 429.688 57.843 429.94 57.93C430.28 58.11 430.6 58.32 430.94 58.52C431.164 58.6343 431.381 58.7611 431.59 58.9C431.889 59.2206 432.264 59.4612 432.68 59.6C433.28 59.77 433.82 59.97 434.43 60.11C434.83 60.2 435.09 60.54 435.43 60.63C435.53 60.6686 435.64 60.6686 435.74 60.63C436.523 60.8808 437.331 61.0451 438.15 61.12C438.97 61.12 439.75 60.96 440.57 60.96C440.95 60.96 441.82 61.06 441.97 60.64C442.31 59.71 439.81 59.98 439.37 59.98C438.868 60.0329 438.362 60.0329 437.86 59.98C437.677 59.9117 437.49 59.8549 437.3 59.81C436.97 59.81 436.37 59.99 436.41 59.51C436.14 59.51 436.06 59.34 435.88 59.2C435.7 59.06 435.61 59.09 435.43 58.98C434.98 58.7 434.74 58.17 434.3 57.86C433.86 57.55 433.3 57.26 432.8 56.92C432.3 56.58 432.12 56.18 431.65 55.92C431.385 55.7953 431.13 55.6481 430.89 55.48C430.33 54.9224 429.837 54.3016 429.42 53.63C429.13 53.23 429.11 52.87 428.74 52.56C428.53 52.38 428.31 52.31 428.18 52.03C428.114 51.9028 428.077 51.763 428.07 51.62C427.95 51.4 427.72 51.29 427.6 51.06C427.495 50.7529 427.411 50.4388 427.35 50.12C427.27 49.89 427.17 49.69 427.09 49.45C427.32 48.33 426.85 46.82 427.09 46.45C427.33 46.08 432.97 41.45 433.43 40.39C433.89 39.33 439.58 36.31 439.91 36.02C440.612 35.2467 441.471 34.6329 442.43 34.22C445.22 33.36 458.12 29.22 458.13 28.4C458.81 28.27 462.96 26.94 463.51 26.96C464.06 26.98 465.92 26.2 466.59 26.05C467.6 25.7114 468.655 25.5227 469.72 25.49C471.93 25.0584 474.086 24.3878 476.15 23.49C479.15 22.09 482.7 22.59 486.08 22.59H507.89C510.05 22.59 512.89 22.14 514.94 22.59C516.52 22.9 528.15 24.1 532.47 24.06C534.81 24.06 536.68 24.8 539.04 24.77C540.04 24.77 542.87 25.58 543.57 25.63C543.69 26.02 546.43 26.7 547.57 26.89C548.565 27.1349 549.546 27.432 550.51 27.78C551.881 28.1391 553.219 28.6141 554.51 29.2C556.9 30.3 564.44 33.78 565.36 34.2C565.45 34.6 567.48 35.41 568.36 35.65C569.257 35.9378 570.087 36.4038 570.8 37.02C571.209 37.8439 571.848 38.5317 572.64 39C573.298 39.3173 573.936 39.6746 574.55 40.07C575.73 40.93 576.33 42.46 576.8 42.92C577.587 43.7574 578.322 44.6424 579 45.57C579.4 46.1 579.77 46.68 580.13 47.22C580.49 47.76 581.13 48.22 581.4 48.67C581.88 49.38 585.49 54.12 585.78 55.22C586.14 56.61 587.28 57.03 587.38 58.53C587.48 60.03 587.16 61.42 587.53 62.84C587.658 65.9415 587.585 69.0481 587.31 72.14C587.31 72.65 585.77 75.44 585.78 75.69C585.44 77.37 586.14 78.69 585.23 80.21C584.77 80.96 584.45 80.98 584.23 81.89C584.11 82.36 584.23 82.89 584.08 83.43C583.907 83.503 583.756 83.6198 583.642 83.7689C583.528 83.9179 583.455 84.0941 583.43 84.28C583.257 85.2346 582.918 86.1516 582.43 86.99C581.83 87.99 580.73 91.47 580.15 92.23C579.68 92.83 579.15 93.07 578.74 93.64C578.158 94.5581 577.637 95.5135 577.18 96.5C576.29 98.4948 574.705 100.098 572.72 101.01C572.088 101.314 571.507 101.716 571 102.2C570.65 102.53 570.56 103.1 570.07 103.49C569.549 103.744 569.015 103.971 568.47 104.17C568.04 104.4 567.56 104.83 567.13 105.08C565.79 105.85 564.3 106.08 563.01 107.08C562.22 107.67 561.56 108.18 560.72 108.74C559.41 109.62 558.08 111.01 556.4 111.43C554.88 111.81 552.32 113.77 550.75 113.56C549.18 113.35 543.31 114.22 541.81 114.04C539.737 113.882 537.658 113.835 535.58 113.9C534.01 113.9 529.38 111.11 528.58 110.83C527.35 110.41 527.2 109.64 525.8 108.26C524.9 107.61 524.4 106.26 523.8 105.67C521.73 103.6 522.88 103.83 521.27 101.67C520.847 101.163 520.463 100.624 520.12 100.06C519.688 99.5313 519.408 98.8954 519.31 98.22C519.31 97.65 520.46 97.42 521.49 97.3C522.096 97.2152 522.682 97.0221 523.22 96.73C523.79 96.27 525.22 96.27 525.86 95.93C526.5 95.59 528.04 94.21 529.77 93.06C532.53 90.99 535.17 88.12 535.86 86.16V85.7C535.85 85.3591 535.976 85.0284 536.21 84.78C536.882 83.7597 537.204 82.5492 537.13 81.33C537.144 80.7542 537.104 80.1784 537.01 79.61C536.896 78.6578 536.493 77.7636 535.855 77.0481C535.216 76.3327 534.373 75.8307 533.44 75.61C532.951 75.5035 532.45 75.4631 531.95 75.49C530.906 75.4799 529.865 75.5975 528.85 75.84C526.216 76.795 523.769 78.2028 521.62 80C520.01 81.26 518.86 82.53 517.25 83.68C516.314 84.5018 515.432 85.3836 514.61 86.32C514.15 86.89 513 87.12 512.61 87.7C512.01 88.6775 511.276 89.5661 510.43 90.34L510.08 90.46C510.08 88.46 511 87.7 511.35 86.32C511.632 85.4302 511.849 84.5212 512 83.6C512.322 82.055 512.907 80.5768 513.73 79.23C515.22 77.85 515.22 78.08 515.45 77.39C515.496 77.189 515.574 76.9966 515.68 76.82L519.68 72.11C520.6 71.11 521.52 69.81 522.44 68.89C524.965 66.434 527.2 63.696 529.1 60.73C531.775 57.4173 534.16 53.881 536.23 50.16C537.23 48.09 538.23 46.37 539.1 44.3C539.737 43.176 540.241 41.9812 540.6 40.74C541.63 38.4246 542.177 35.9239 542.21 33.39C542.21 30.63 540.21 27.99 538.42 27.64C537.926 27.5463 537.423 27.5094 536.92 27.53C535.016 27.618 533.178 28.2572 531.63 29.37C527.26 31.9 522.43 37.99 520.13 42.24C519.32 43.73 518.06 44.88 517.25 46.24L516.33 48.31C515.974 48.9183 515.551 49.4851 515.07 50C514.784 51.1561 514.361 52.274 513.81 53.33C513.69 53.44 513.58 54.13 513 55.4L510.36 61.03C510.01 61.95 510.36 63.21 509.9 63.9C509.21 64.59 509.1 65.39 508.63 66.66L507.25 71.14C507.02 72.14 506.79 73.32 506.44 74.47C506.12 75.5091 505.698 76.514 505.18 77.47C504.6 78.96 504.83 79.88 504.18 81.38C503.95 81.84 503.38 82.18 503.18 82.64C502.92 83.341 502.585 84.0117 502.18 84.64C501.38 85.9 500.46 87.28 499.65 88.32C499.142 88.847 498.605 89.3445 498.04 89.81C497.23 90.61 497.69 90.96 497.35 91.3C497.01 91.64 496.54 91.3 496.43 91.65C496.09 92.33 494.97 92.85 494.43 93.53C494.18 93.69 493.95 93.89 493.71 94.07C492.859 94.7835 491.953 95.4289 491 96C490.441 96.2956 489.866 96.5626 489.28 96.8C488.647 97.222 487.947 97.5331 487.21 97.72C486.518 97.9948 485.774 98.1143 485.03 98.07H484.03C483.487 98.1312 482.938 98.0734 482.42 97.9007C481.902 97.728 481.427 97.4446 481.03 97.07C482.29 95 483.79 92.01 483.79 88.91C484.321 87.6497 484.726 86.34 485 85C485.094 84.3914 485.131 83.7754 485.11 83.16C485.23 82.7 485.46 82.47 485.46 82.01V81.21C485.46 78.11 484.31 76.15 483.28 75.21C481.648 73.6339 479.459 72.7676 477.19 72.8C476.461 72.7829 475.732 72.823 475.01 72.92C473.75 73.15 472.14 73.92 470.64 73.92H469.83C469.632 73.8925 469.43 73.9349 469.26 74.04C466.833 75.1411 464.616 76.6572 462.71 78.52C462.3 79.0369 461.916 79.5742 461.56 80.13C461.22 80.48 460.76 80.48 460.41 80.93C458.885 82.7222 457.466 84.6021 456.16 86.56C455.47 87.71 455.35 89.32 454.67 90.47C454.372 90.7069 454.101 90.9751 453.86 91.27C453.411 92.0537 453.144 92.9288 453.08 93.83L452.83 94.03C452.039 94.7601 451.193 95.4287 450.3 96.03C449.741 96.3255 449.166 96.5926 448.58 96.83C447.947 97.2519 447.247 97.5631 446.51 97.75C445.818 98.0248 445.074 98.1443 444.33 98.1H443.33C442.787 98.1612 442.238 98.1034 441.72 97.9307C441.202 97.758 440.727 97.4746 440.33 97.1C441.49 95 443 92 443 88.89C443.506 87.6337 443.888 86.3308 444.14 85C444.237 84.3918 444.278 83.7758 444.26 83.16C444.38 82.7 444.61 82.47 444.61 82.01V81.21C444.61 78.11 443.46 76.15 442.43 75.21C440.798 73.6339 438.609 72.7676 436.34 72.8C435.611 72.7829 434.882 72.823 434.16 72.92C432.9 73.15 431.29 73.92 429.79 73.92H429C428.802 73.8925 428.6 73.9349 428.43 74.04C426.003 75.1411 423.786 76.6572 421.88 78.52C421.47 79.037 421.086 79.5743 420.73 80.13C420.38 80.48 419.92 80.48 419.58 80.93C418.055 82.7222 416.636 84.6021 415.33 86.56C414.64 87.71 414.53 89.32 413.84 90.47C413.542 90.7069 413.271 90.9751 413.03 91.27C412.662 91.8571 412.432 92.5207 412.36 93.21C411.788 93.7621 411.263 94.3608 410.79 95C410.45 95.35 409.64 95.58 409.3 95.92C408.491 96.8418 407.562 97.6522 406.54 98.33C405.85 98.9 405.62 100.17 404.82 100.74C404.47 100.97 403.9 101.09 403.56 101.31C402.616 102.111 401.613 102.84 400.56 103.49C399.76 103.95 399.76 104.75 398.95 105.21L397.57 105.44C397.34 105.56 397.22 106.36 396.99 106.44C394.92 106.44 394.23 107.01 392.16 108.05C391.042 108.552 389.889 108.974 388.71 109.31C386.541 110.113 384.242 110.503 381.93 110.46C380.21 110.46 379.17 109.66 378.6 107.24C378.503 106.672 378.463 106.096 378.48 105.52C378.48 102.3 380.09 100 380.09 97.71C380.09 97.25 379.51 96.56 379.51 96.45C379.63 95.99 380.43 95.65 380.66 95.3C381.35 94.3 381.81 93.12 382.5 91.85C382.644 91.6485 382.725 91.4079 382.73 91.16C382.707 90.8911 382.667 90.6239 382.61 90.36C382.61 89.56 384.1 89.1 384.33 88.87C385.71 87.61 384.79 87.87 386.17 86.34C387.09 85.34 386.98 84.5 388.17 83.58C388.4 83.24 389.32 83.12 389.55 83.01C390.01 82.55 391.73 81.86 392.19 81.52C393.213 80.4735 394.539 79.7741 395.98 79.52C397.98 79.52 398.98 79.87 399.43 80.9C399.523 81.1973 399.56 81.5092 399.54 81.82C399.443 82.7595 399.128 83.6634 398.62 84.46C398.28 85.15 397.47 85.72 397.47 86.18C397.47 86.64 398.16 87.56 398.73 87.56C400.11 87.22 401.6 85.56 402.64 84.46C403.33 83.66 404.82 82.46 405.86 81.24C406.21 80.78 405.98 80.32 406.21 79.86C406.44 79.4 407.13 80.09 407.7 78.86C408.214 77.9903 408.49 77.0004 408.5 75.99C408.5 75.07 407.35 72.66 406.09 72.66C404.37 72.66 403.45 77.37 401.72 78.87C401.49 78.18 401.15 78.18 400.8 77.87C400.117 77.1448 399.298 76.5605 398.39 76.15C396.909 75.6532 395.352 75.4197 393.79 75.46C391.03 75.46 387.93 75.81 385.86 77.07C385.448 77.4634 385.064 77.8843 384.71 78.33C383.91 79.02 382.71 78.67 381.95 79.25C380.02 80.5363 378.311 82.1269 376.89 83.96C374.875 86.5991 373.094 89.4099 371.57 92.36C370.41 92.43 367.91 96.15 366.57 97.07C366.11 97.53 364.96 98.07 364.57 98.56C364.005 99.4306 363.307 100.207 362.5 100.86C362.27 101.2 361.7 101.2 361.5 101.55C360.605 102.676 359.646 103.751 358.63 104.77C357.71 105.34 356.79 105.69 355.87 106.26L355.41 107.06C354.631 107.395 353.825 107.663 353 107.86C352.675 107.949 352.337 107.986 352 107.97C351.65 107.97 351.31 107.86 351.31 107.4C351.31 107.17 351.2 106.94 351.2 106.6C351.217 105.822 351.331 105.049 351.54 104.3V103.61C351.52 103.299 351.557 102.987 351.65 102.69C352 101.77 352.34 101.89 352.46 101.54C353.26 99.93 353.38 97.98 353.95 96.6C354.3 95.6 354.18 94.76 354.53 93.73C355.22 91.89 356.02 90.05 356.83 88.21C357.06 87.64 357.64 86.95 357.83 86.37C358.83 83.73 360.7 81.66 360.7 79.25C360.717 78.9386 360.676 78.6267 360.58 78.33C360.34 77.8939 360.072 77.4731 359.78 77.07C359.09 76.38 359.66 75.35 358.51 74.54C357.875 74.273 357.198 74.1174 356.51 74.08C356.074 74.0529 355.639 74.1318 355.24 74.31C353.86 75 354.44 75.11 353.52 76.49C352.984 76.9634 352.477 77.4676 352 78C350.74 79.26 349.82 80.76 349 81.56C348 82.56 348.08 83.05 346.82 84.66C346.058 85.8198 345.23 86.935 344.34 88C344.11 88.23 343.65 88.46 343.34 88.8C343.037 89.1049 342.765 89.44 342.53 89.8C342.07 90.26 341.96 91.06 341.61 91.52C341.26 91.98 340.69 91.75 340.46 92.21C340.23 92.67 338.46 94.39 338.46 94.97C338.46 95.55 338.92 96.46 339.84 96.46C340.658 96.1761 341.382 95.6707 341.93 95C342.238 94.6667 342.572 94.359 342.93 94.08C343.27 93.73 343.39 93.28 343.73 92.93C344.315 92.3988 344.929 91.9014 345.57 91.44C346.14 90.98 346.14 90.64 346.37 90.64C346.429 90.6446 346.485 90.6703 346.528 90.7125C346.57 90.7547 346.595 90.8105 346.6 90.87C344.809 94.8201 343.422 98.941 342.46 103.17C342.302 104.118 342.225 105.079 342.23 106.04C342.138 107.134 342.295 108.235 342.69 109.26C343.5 110.52 345.91 111.56 347.75 111.9C347.98 111.9 348.1 112.01 348.33 112.01C349.869 111.832 351.376 111.445 352.81 110.86C353.73 110.52 356.14 109.94 357.06 109.25C357.64 108.79 357.98 107.87 358.55 107.53C359.12 107.19 359.47 107.41 359.82 107.19L360.74 106.04C362.74 103.97 365.11 102.59 367.18 100.64C367.931 99.8908 368.623 99.0851 369.25 98.23L369.57 98.14C369.467 98.6614 369.4 99.1894 369.37 99.72C369.37 100.52 368.56 102.02 368.56 102.59C368.56 103.16 368.79 103.74 368.79 104.31C368.695 106.797 369.396 109.249 370.79 111.31C371.94 112.92 376.42 114.76 379.64 114.76C380.139 114.785 380.64 114.748 381.13 114.65C382.22 114.377 383.337 114.223 384.46 114.19C384.81 114.19 385.73 113.73 386.3 113.62C387.68 113.16 389.52 112.82 390.78 112.24C391.799 111.778 392.762 111.201 393.65 110.52C393.88 110.29 395.37 110.06 395.65 109.83C398.87 107.83 401.74 106.04 404.73 103.97C405.998 103.209 407.159 102.28 408.18 101.21C409.055 100.174 410.063 99.2592 411.18 98.49C411.087 99.3937 411.04 100.302 411.04 101.21C410.916 103.663 411.39 106.11 412.42 108.34C413.91 111.21 417.36 112.48 420.7 112.48C422.621 112.482 424.527 112.144 426.33 111.48C427.718 110.841 428.997 109.987 430.12 108.95C430.47 108.72 430.47 108.6 430.58 108.6C430.93 108.37 431.04 107.45 431.39 107.11C431.74 106.77 432.2 106.76 432.77 106.42C434.136 105.205 435.333 103.812 436.33 102.28L436.56 101.93C437.56 100.55 437.71 101.36 438.63 99.63C439.919 100.486 441.456 100.89 443 100.78C444.689 100.779 446.364 100.467 447.94 99.86C448.29 99.75 448.4 99.4 448.74 99.29C449.037 99.1936 449.349 99.153 449.66 99.17C450.426 98.8893 451.129 98.4613 451.73 97.91L452.09 97.68C452.157 96.3788 452.473 95.1024 453.02 93.92C452.65 94.31 451.77 96.92 452.09 97.68C451.921 98.8591 451.838 100.049 451.84 101.24C451.716 103.693 452.19 106.14 453.22 108.37C454.71 111.24 458.16 112.51 461.5 112.51C463.421 112.512 465.327 112.174 467.13 111.51C468.518 110.871 469.798 110.017 470.92 108.98C471.27 108.75 471.27 108.63 471.38 108.63C471.73 108.4 471.84 107.48 472.19 107.14C472.54 106.8 473 106.79 473.57 106.45C474.936 105.235 476.133 103.842 477.13 102.31L477.36 101.96C478.36 100.58 478.51 101.39 479.43 99.66C480.719 100.516 482.256 100.92 483.8 100.81C485.489 100.809 487.164 100.497 488.74 99.89C489.09 99.78 489.2 99.43 489.54 99.32C489.837 99.2236 490.149 99.183 490.46 99.2C491.226 98.9191 491.929 98.491 492.53 97.94C493.643 97.2647 494.69 96.488 495.66 95.62C496.122 95.448 496.549 95.1939 496.92 94.87C497.38 94.41 498.63 93.34 498.97 93C499.599 92.4852 500.175 91.909 500.69 91.28C501.04 90.94 501.61 89.67 502.18 89.67C502.263 89.6947 502.338 89.7396 502.399 89.8007C502.46 89.8618 502.505 89.9372 502.53 90.02C502.099 91.2179 501.764 92.4486 501.53 93.7C501.19 97.61 500.61 97.26 499.69 102.43C499.377 104.138 499.183 105.865 499.11 107.6C499.11 108.52 498.76 108.86 498.76 109.67V110C498.88 110.69 501.4 111 502.09 111.49C502.811 111.96 503.641 112.235 504.5 112.29C505.19 112.29 506.34 112.06 506.68 111.29C507.6 109.29 507.68 103.94 508.68 100.95C509.03 99.69 508.91 98.31 509.6 97.39L510.6 95.9C511.4 94.64 511.29 93.03 512.32 92.11C512.67 91.88 513.12 91.88 513.32 91.65C513.784 90.9877 514.352 90.4037 515 89.92C515 89.57 516 89 516.49 88.43C517.29 87.43 517.41 86.43 518.33 85.67C519.02 85.1 520.17 85.1 520.63 84.41L521.74 83C523.655 81.5586 525.789 80.4343 528.06 79.67C528.277 79.575 528.514 79.5338 528.75 79.55C528.944 79.534 529.138 79.5808 529.304 79.6834C529.47 79.786 529.598 79.939 529.67 80.12C529.763 80.4448 529.804 80.7824 529.79 81.12C529.752 82.4084 529.409 83.6694 528.79 84.8C528.56 85.15 528.44 85.8 528.21 86.18C527.98 86.56 527.52 86.64 527.06 86.98C526.26 87.67 525.91 88.59 525.22 89.28C522.35 92.28 520.39 94.8 516.83 94.8C516.25 94.8 515.45 94.11 514.65 94.11C513.85 94.11 512.12 96.75 512.12 98.11C512.12 99.26 512.24 99.11 512.81 100.11C513.301 100.577 513.762 101.075 514.19 101.6L514.42 102.17C515.57 104.81 515 104.58 516.72 107.11C517.044 107.549 517.431 107.936 517.87 108.26C518.22 108.38 518.79 109.75 519.02 109.98L520.89 111.62C521.27 112.62 523.94 114.49 525.1 114.9C525.832 115.203 526.541 115.561 527.22 115.97C530.88 117.77 536.41 117.44 540.68 117.22C542.09 117.15 551.28 116.96 552.39 116.34C554.359 115.464 556.391 114.738 558.47 114.17C558.97 114.06 560.13 113.5 560.75 113.27C562.41 112.66 563.75 111.85 565.48 111.32C565.57 110.93 567.1 110.21 567.82 109.91C567.89 109.51 571.56 107.63 572.53 106.98C573.89 106.07 575.4 105.05 576.73 104.09C578.06 103.13 578.26 102.25 579.45 101.25C580.09 100.71 580.91 100.35 581.51 99.83C581.763 99.449 582.037 99.0818 582.33 98.73L583.33 98.39C584.55 97.39 588.33 89.86 588.84 89.07C589.35 88.28 592.28 76.07 591.65 75.61C591.779 74.6994 591.825 73.779 591.79 72.86C591.79 70.68 591.79 68.77 591.79 66.59L591.77 66.69ZM438.27 84.06C437.457 84.2134 436.684 84.5335 436 85C434.74 85.8 433.59 87 433.59 88.33V91.33C433.618 91.9088 433.695 92.4842 433.82 93.05C434.28 94.4904 434.98 95.8427 435.89 97.05C434.556 99.2889 432.976 101.372 431.18 103.26C430.207 104.402 429.087 105.411 427.85 106.26C426.612 107.353 425.022 107.964 423.37 107.98C422.451 108.093 421.521 107.892 420.73 107.41C419.58 106.49 419.24 105.57 419.24 103.27V101C419.573 99.9813 419.956 98.98 420.39 98C420.85 96.51 422.57 94 422.57 92.37C422.57 92.03 422.23 91.37 422.23 90.76C422.57 90.19 423.61 89.96 424.23 89.61C425.61 88.69 425.23 88 425.72 87.2C426.586 86.049 427.546 84.972 428.59 83.98C429.501 82.7624 430.541 81.646 431.69 80.65C433.99 79.04 434.22 78.35 436.98 77.89C437.21 77.89 437.55 77.77 437.79 77.77C438.201 77.6974 438.623 77.722 439.022 77.8419C439.421 77.9617 439.787 78.1734 440.09 78.46C440.9 79.26 440.78 80.53 440.9 81.68C440.9 81.91 441.25 82.37 441.25 82.68C441.25 82.99 440.9 83.37 440.9 83.6L440.78 84.6C440.21 84.03 439.63 84.03 438.37 84.03L438.27 84.06ZM479.08 84.06C478.258 84.2034 477.474 84.5167 476.78 84.98C475.51 85.78 474.37 86.98 474.37 88.31V91.31C474.399 91.8788 474.476 92.4441 474.6 93C475.06 94.4405 475.759 95.7929 476.67 97C475.336 99.2389 473.756 101.322 471.96 103.21C470.987 104.352 469.867 105.361 468.63 106.21C467.392 107.303 465.802 107.914 464.15 107.93C463.231 108.043 462.301 107.842 461.51 107.36C460.36 106.44 460.02 105.52 460.02 103.22V101C460.353 99.9813 460.736 98.98 461.17 98C461.63 96.51 463.35 94 463.35 92.37C463.35 92.03 463.01 91.37 463.01 90.76C463.35 90.19 464.39 89.96 465.01 89.61C466.39 88.69 466.01 88 466.5 87.2C467.366 86.049 468.326 84.972 469.37 83.98C470.281 82.7625 471.321 81.6462 472.47 80.65C474.77 79.04 475 78.35 477.76 77.89C477.99 77.89 478.33 77.77 478.56 77.77C478.971 77.6974 479.393 77.722 479.792 77.8419C480.191 77.9617 480.557 78.1734 480.86 78.46C481.67 79.26 481.55 80.53 481.67 81.68C481.67 81.91 482.01 82.37 482.01 82.68C482.01 82.99 481.67 83.37 481.67 83.6L481.55 84.6C480.98 84.03 480.4 84.03 479.14 84.03L479.08 84.06ZM516.34 69.7C517.06 66.9165 517.983 64.1893 519.1 61.54C519.156 61.2662 519.276 61.0095 519.45 60.7906C519.623 60.5717 519.846 60.3968 520.1 60.28C520.44 59.82 520.22 58.56 521.25 56.28C522.28 54 524.47 49.38 524.7 48.35C524.626 48.0303 524.511 47.7212 524.36 47.43C524.36 47.43 525.63 47.08 525.74 46.74C526.55 45.13 528.5 41.91 528.5 41.68C528.5 41.45 529.5 40.76 529.77 40.42C530.04 40.08 529.89 39.73 530.11 39.42C530.69 38.5 531.26 37.58 532.29 36.2C533.32 34.82 535.74 33.2 536.66 33.2C536.896 33.1838 537.133 33.225 537.35 33.32C538.04 33.67 538.27 34.93 538.27 35.5C538.186 37.3805 537.808 39.2363 537.15 41C536.8 41.8 535.88 43.53 535.65 44.22C535.42 44.91 534 45.8 533.58 46.6C532.78 48.21 532.66 49.36 531.86 50.85C530.462 53.3113 528.926 55.6917 527.26 57.98C525.65 60.39 521.63 65.91 520.02 67.4L518.18 69.47C518.06 69.7 516.91 70.96 516.57 70.96C516.23 70.96 516.34 70.16 516.34 69.7ZM580.45 29C579.1 27.52 571.73 22.76 570.94 22.3C568.48 20.85 560.03 16.91 557.86 16.85C557.49 16.85 547.12 14.23 546.7 14.12C545.908 13.8735 545.088 13.7257 544.26 13.68C541.918 13.4791 539.599 13.0708 537.33 12.46C535.36 11.943 533.355 11.572 531.33 11.35C528.42 10.95 519.33 9.35001 517.33 9.40001C516.05 9.40001 502.51 8.80001 500.99 8.73001C500.13 8.73001 499.21 8.73001 498.34 8.73001H493.16C490.37 8.73001 486.65 8.28001 483.93 8.73001C482.75 8.91001 472.02 9.39001 469.99 9.39001C468.31 9.39001 460.76 10.39 459.37 10.64C457.98 10.89 450.37 12.64 449.37 12.72C445.98 13.16 426.37 17.72 424.24 18.8C423.101 19.2953 422.021 19.9158 421.02 20.65C420.02 21.44 419.1 21.36 417.78 21.65C416.62 21.94 416.16 22.65 415.03 22.9C413.9 23.15 410.03 26.47 409.14 27.35C408.77 27.73 407.51 28.9 407.14 29.18C406.39 29.8 405.02 31.38 404.62 31.67C404.48 31.77 403.62 32.59 403.54 32.67C402.92 33.35 402.77 32.96 402.69 34.02C402.62 34.87 402.85 38.29 404.69 36.54C406.53 34.79 405.28 33.76 408.1 31.3C408.36 31.07 419.82 24.25 420.19 23.99C421.04 23.2962 422.014 22.7702 423.06 22.44C426.23 21.7 440.89 18.12 440.9 17.44C441.68 17.33 446.39 16.18 447.01 16.2C447.63 16.22 449.75 15.54 450.51 15.41C451.675 15.1169 452.869 14.9559 454.07 14.93C456.547 14.572 458.989 14.0033 461.37 13.23C464.74 12.02 468.82 12.46 472.66 12.46H497.45C499.91 12.46 503.1 12.07 505.45 12.46C507.24 12.73 520.45 13.76 525.37 13.73C528.03 13.73 530.15 14.37 532.83 14.34C533.99 14.34 537.19 15.04 537.98 15.08C538.11 15.41 541.23 16 542.58 16.16C543.69 16.29 544.81 16.7 545.91 16.93C547.449 17.2345 548.966 17.6421 550.45 18.15L562.79 22.46C562.89 22.8 565.21 23.46 566.24 23.71C567.224 23.9435 568.16 24.3426 569.01 24.89C569.519 25.6003 570.21 26.16 571.01 26.51C571.748 26.7802 572.473 27.0872 573.18 27.43C574.52 28.17 575.18 29.48 575.74 29.89C576.63 30.6001 577.475 31.3649 578.27 32.18C578.73 32.63 579.15 33.18 579.56 33.6C579.97 34.02 580.65 35.33 581.07 35.16C583.57 34.16 581.76 30.55 580.41 29.07L580.45 29ZM401.71 42.4C401.644 41.939 401.644 41.471 401.71 41.01L402.66 39.23C402.75 38.9 402.66 38.7 402.32 38.46C401.43 38.57 401.13 38.04 400.72 38.46C400.289 39.1792 399.975 39.9623 399.79 40.78C399.826 40.846 399.845 40.9199 399.845 40.995C399.845 41.0701 399.826 41.144 399.79 41.21C399.47 42.08 398.79 43.21 399.5 44.1C400.04 44.8 399.79 45.9 400.28 46.63C400.77 47.36 401.22 47.85 401.64 48.58C401.87 48.98 402.64 49.33 402.81 49.75C402.88 49.88 408.29 53.23 410.51 54.69C411.129 55.1105 411.802 55.4467 412.51 55.69C413.553 55.9511 414.639 55.9954 415.7 55.82C415.488 55.6416 415.264 55.4779 415.03 55.33C414.78 55.22 414.42 55.18 414.14 55.05C413.653 54.7942 413.191 54.4928 412.76 54.15C412.145 53.8166 411.507 53.5291 410.85 53.29C410.407 53.0975 409.984 52.8595 409.59 52.58C409.478 52.4709 409.377 52.3502 409.29 52.22C409.139 52.1391 408.971 52.0946 408.8 52.09C408.52 51.86 407.23 50.86 406.8 50.57C406.479 50.3773 406.168 50.1669 405.87 49.94C405.02 48.9993 404.303 47.9461 403.74 46.81C403.512 46.2746 403.251 45.7537 402.96 45.25C402.65 44.63 402.67 43.94 402.37 43.33C402.19 42.96 401.89 42.79 401.77 42.43L401.71 42.4ZM573.07 17.6C574.47 16.54 571.45 12.6 570.58 12.26C565.958 10.4935 561.233 9.01077 556.43 7.82001C556.04 7.72001 549.6 6.43001 546.53 5.82001L547.14 5.96001C543.99 5.32001 544.58 5.44001 546.53 5.82001C544.639 5.30808 542.719 4.91069 540.78 4.63001C538.186 4.37617 535.611 3.95867 533.07 3.38001C530.837 2.85137 528.577 2.4408 526.3 2.15001C523 1.83001 512.88 0.600012 510.7 0.660012C509.27 0.700012 494.14 0.200012 492.45 0.150012C491.45 0.150012 490.45 0.150012 489.45 0.150012H483.67C480.55 0.150012 476.4 -0.189988 473.36 0.150012C472.05 0.290012 460.05 0.650012 457.79 0.650012C455.91 0.650012 447.48 1.41001 445.92 1.60001C444.36 1.79001 435.87 3.09001 434.74 3.19001C431 3.50001 409.1 7.00001 406.7 7.80001C405.461 8.16418 404.257 8.63598 403.1 9.21001C401.946 9.67557 400.723 9.94593 399.48 10.01C398.18 10.23 397.67 10.78 396.41 11.01C395.15 11.24 390.8 13.73 389.83 14.39C389.41 14.68 388.01 15.57 387.63 15.78C386.8 16.25 385.26 17.46 384.82 17.68C384.67 17.76 383.66 18.38 383.62 18.41C382.93 18.93 381.37 21.2 384.04 20.58C386.04 20.1 385.46 19 385.93 18.63C386.18 18.43 401.79 11.99 402.2 11.8C403.203 11.2513 404.281 10.8537 405.4 10.62C409 10 425.33 7.29001 425.35 6.76001C426.22 6.68001 431.48 5.76001 432.17 5.82001C432.86 5.88001 435.23 5.32001 436.08 5.22001C437.402 4.99626 438.739 4.8759 440.08 4.86001C442.823 4.59314 445.548 4.16237 448.24 3.57001C452 2.64001 456.53 3.00001 460.82 3.00001H488.5C491.24 3.00001 494.81 2.70001 497.5 3.00001C499.5 3.21001 514.26 4.00001 519.75 4.00001C522.75 4.00001 525.09 4.49001 528.09 4.47001C529.39 4.47001 532.96 5.54001 533.84 5.57001C533.99 5.82001 537.46 6.27001 538.98 6.39001C540.23 6.49001 541.48 6.80001 542.71 6.97001C544.49 7.22001 546.13 7.51001 547.78 7.90001C550.78 8.62001 559.78 11.58 560.97 11.9C561 12 564 13 565.35 13.67C566.23 14.13 567.72 15.31 568.44 15.67C569.065 16.2508 569.819 16.6757 570.64 16.91C571.32 17.09 572.56 17.99 573.06 17.61L573.07 17.6ZM382.55 22.8C382.4 22.32 382.43 22.32 382.07 22.14C381.71 21.96 381.62 21.7 381.42 21.73C381.046 21.7924 380.702 21.9725 380.438 22.2441C380.173 22.5157 380.002 22.8646 379.95 23.24C379.845 23.9025 379.845 24.5775 379.95 25.24C380.052 25.7967 380.196 26.3449 380.38 26.88C380.506 27.1426 380.675 27.3825 380.88 27.59C381.36 28.24 381.59 29.13 382.1 29.76C382.3 30.01 382.35 29.93 382.56 30.1C382.77 30.27 382.82 30.89 383.1 31.17C383.38 31.45 383.4 31.27 383.65 31.35C383.9 31.43 384.01 31.68 384.14 31.71C384.62 31.8 384.62 31.47 384.57 31.03C384.419 30.4811 384.221 29.9459 383.98 29.43C383.936 29.183 383.876 28.9391 383.8 28.7C383.65 28.38 383.31 28.26 383.13 27.96C382.645 27.1705 382.444 26.2392 382.56 25.32C382.811 24.4988 382.811 23.6213 382.56 22.8H382.55ZM375 45.68C375.415 44.2997 375.647 42.8708 375.69 41.43C375.69 40.63 375.57 39.94 375.11 39.71C374.485 39.2224 373.722 38.9427 372.93 38.91C371.21 38.91 371.09 40.52 370.4 41.32C369.4 42.32 367.87 42.93 367.18 44.42C366.969 44.9314 366.854 45.4771 366.84 46.03C366.877 46.532 366.954 47.0302 367.07 47.52C367.163 48.0109 367.2 48.5108 367.18 49.01C367.18 50.27 366.72 51.08 366.26 53.15C366.163 53.5253 366.123 53.9128 366.14 54.3C366.14 55.1 366.37 55.79 367.14 55.79C370.59 55.79 374.04 48.89 374.96 45.68H375ZM363.66 59.24H361.94C358.402 59.3594 354.89 59.8998 351.48 60.85C350.48 61.08 349.07 61.54 347.8 61.77C347.52 61.6116 347.202 61.5321 346.88 61.54C346.719 61.5213 346.556 61.5603 346.42 61.65C346.014 61.8036 345.584 61.8816 345.15 61.88C345.036 61.8681 344.926 61.8315 344.828 61.7728C344.729 61.7141 344.645 61.6346 344.58 61.54C344.58 60.39 345.38 59.93 345.58 59.13V58.33C345.569 58.0189 345.61 57.7081 345.7 57.41C345.82 57.29 346.85 56.49 346.85 56.26C347.19 55.69 346.96 55.26 347.31 54.77C347.54 54.65 347.66 54.42 347.89 54.42C348.58 53.16 350.07 51.78 350.89 50.42C352.38 47.55 353.3 45.02 354.68 42.49C354.724 42.4438 354.756 42.3883 354.775 42.3277C354.794 42.267 354.799 42.2029 354.79 42.14C354.79 41.8 353.98 41.34 353.79 41.14C353.6 40.94 353.19 41 353 41C352.54 41 351.74 41.12 351.39 41.12C349.09 41.12 347.71 43.88 346.1 45.26C344.354 46.8344 342.845 48.6533 341.62 50.66C340.47 52.38 338.62 53.42 337.71 55.14C337.466 56.0898 337.131 57.014 336.71 57.9C335.91 59.39 334.71 60.54 334.53 62.5L330.74 63.42C329.992 63.6371 329.219 63.7514 328.44 63.76C327.706 63.8927 327.018 64.2092 326.44 64.68C326.55 65.37 327.82 67.09 328.85 67.09C329.31 67.09 329.65 66.97 330.11 66.97C330.57 66.97 331.83 67.09 331.83 67.89C331.83 69.04 329.99 71.22 329.19 73.52C329.145 73.5653 329.11 73.6204 329.089 73.6811C329.069 73.7418 329.062 73.8064 329.07 73.87C329.07 74.21 329.3 74.56 329.3 74.87C328.933 75.4907 328.497 76.0677 328 76.59C327.631 77.6242 327.435 78.7121 327.42 79.81C327.42 81.07 326.27 82.57 325.58 83.49C325.01 84.18 325.35 85.21 325.12 86.02C324.44 87.6748 323.845 89.3637 323.34 91.08C323.21 91.08 322.74 91.68 322.67 91.68C322.44 91.68 322.25 91.99 321.9 92.11C320.98 92.34 317.42 97.28 316.04 98.55L314 100.15C312.85 101.15 313.2 101.3 312 102.45C310.991 103.486 309.875 104.411 308.67 105.21C307.777 105.828 306.748 106.223 305.67 106.36C305.096 106.402 304.525 106.239 304.06 105.9C303.06 105.21 302.68 104.18 302.68 102.34C302.669 101.725 302.706 101.11 302.79 100.5C302.79 99.58 302.56 98.09 302.56 96.94V96.14C302.974 94.6809 303.206 93.1761 303.25 91.66C303.25 90.74 303.48 89.48 303.48 88.56C303.505 88.2483 303.464 87.9349 303.36 87.64C303.265 87.4232 303.223 87.1863 303.24 86.95C303.288 86.4753 303.406 86.0103 303.59 85.57C303.688 84.8328 303.842 84.1041 304.05 83.39V82.8C304.156 80.8283 303.676 78.8693 302.67 77.17C302.122 76.4342 301.421 75.8267 300.614 75.3897C299.808 74.9528 298.916 74.6969 298 74.64C295.782 74.7653 293.657 75.5681 291.91 76.94C290.652 77.8914 289.496 78.9705 288.46 80.16C286.764 81.7199 285.151 83.3689 283.63 85.1C281.33 87.97 280.87 88.32 278.57 91.1C277.65 92.36 277.57 92.36 277.19 92.36C277.08 92.36 277.08 92.13 277.08 92.02C277.377 90.7321 277.761 89.4658 278.23 88.23C278.69 86.97 278.69 86.05 279.23 84.78C279.324 84.6022 279.363 84.4 279.34 84.2C279.322 83.8649 279.285 83.531 279.23 83.2C279.34 82.85 279.8 82.4 279.92 82.05C280.131 80.532 280.466 79.0338 280.92 77.57C281.654 75.5325 282.118 73.4078 282.3 71.25C282.07 70.25 281.61 69.64 280.69 69.64C279.884 69.7091 279.101 69.944 278.39 70.33C276.3 71.1821 274.53 72.6686 273.33 74.58C270.596 78.6112 267.589 82.4502 264.33 86.07C263.53 86.99 262.61 88.25 261.69 89.17C260.54 90.32 260.69 90.55 260.08 91.17C259.47 91.79 259.16 91.86 258.7 92.32C258.379 92.644 258.109 93.0149 257.9 93.42C256.632 94.2751 255.473 95.2826 254.45 96.42C251.767 99.2237 248.926 101.871 245.94 104.35C244.739 105.133 243.419 105.714 242.03 106.07C241.745 106.064 241.466 105.985 241.22 105.84C239.96 105.15 239.73 103.77 239.73 101.7C239.714 100.769 239.829 99.8397 240.07 98.94C240.99 95.94 241.56 92.5 242.94 89.63C243.4 88.63 244.43 87.45 245.01 86.3C245.551 84.6852 246.282 83.1409 247.19 81.7C247.31 81.58 247.31 81.24 247.31 80.78C247.229 79.81 246.929 78.8712 246.431 78.0344C245.934 77.1976 245.253 76.4849 244.44 75.95C244.306 75.8568 244.143 75.8143 243.98 75.83C243.29 75.83 242.26 76.17 241.91 76.17C240.3 76.4 239.91 78.7 238.91 79.96C237.91 81.22 236.38 82.14 235.58 83.41C234.58 84.79 233.97 86.28 232.94 87.66C232.13 88.92 230.41 90.19 229.61 91.34C228.669 92.4291 227.668 93.4641 226.61 94.44C225.947 94.9394 225.256 95.4001 224.54 95.82C223.85 96.4 223.39 97.2 222.7 97.82C221.7 98.74 220.4 99.31 219.25 100.23C218.9 100.46 218.9 101.15 218.56 101.49C217.07 102.98 214.08 105.28 213.16 105.28C212.47 105.28 211.67 105.16 211.55 104.36C211.55 102.06 214.65 93.36 217.07 89.65C217.65 88.85 217.42 87.93 217.76 87.01C217.88 86.55 218.34 85.86 218.34 85.75C218.34 84.75 220.98 81.61 220.98 80.23C220.944 79.3733 221.059 78.5169 221.32 77.7C221.686 77.0631 221.921 76.3592 222.01 75.63C222.044 75.3058 221.963 74.9799 221.78 74.71C221.43 74.14 219.71 73.56 218.56 73.56C217.059 73.9559 215.626 74.5762 214.31 75.4C212.82 76.32 211.9 76.09 210.31 77.12C209.686 77.8258 209.238 78.6686 209 79.58C208.532 80.7083 207.781 81.6968 206.82 82.45C205.44 83.45 205.32 84.29 204.29 85.21C202.8 86.59 203.94 86.21 202.45 87.74L200.73 89.35C199.92 89.92 199.81 89.81 199.35 90.73C198.837 91.518 198.202 92.22 197.47 92.81C198.12 90.12 198.79 87.47 199.58 84.99C199.81 84.19 199.7 83.38 199.93 82.46C200.5 79.82 202.57 76.46 202.69 72.69C202.69 72.12 201.69 71.69 201.08 71.69C200.343 71.7883 199.614 71.9421 198.9 72.15C197.646 72.6492 196.481 73.3483 195.45 74.22C194.45 74.91 194.76 76.4 193.96 77.55C193.16 77.55 192.96 76.4 189.13 75.14C188.074 74.8974 186.993 74.78 185.91 74.79C183.859 74.7524 181.811 74.9844 179.82 75.48C177.466 76.2061 175.222 77.249 173.15 78.58C172.661 79.0105 172.2 79.4714 171.77 79.96C171.19 80.53 170.16 80.88 169.47 81.57C169.24 81.8 169.12 82.37 168.89 82.49C168.09 83.29 166.71 83.64 165.89 84.67C165.07 85.7 164.4 87.67 163.36 88.67C162.902 89.1495 162.515 89.6916 162.21 90.28C161.75 90.86 161.86 91.89 161.06 92.58C160.266 93.7333 159.596 94.9667 159.06 96.26C158.36 96.89 157.77 97.84 157.12 98.32C155.306 99.978 153.386 101.515 151.37 102.92C146.31 106.25 145.28 107.4 140.91 108.21C140.19 108.337 139.461 108.414 138.73 108.44C137.24 108.44 135.51 107.75 134.94 104.65C134.84 103.928 134.8 103.199 134.82 102.47C134.815 101.974 134.875 101.48 135 101C135.169 99.892 135.478 98.8099 135.92 97.78C137.18 96.78 137.76 97.55 139.02 96.63C139.645 96.0792 140.341 95.615 141.09 95.25C141.55 95.02 142.59 95.02 142.7 94.91C144.568 94.1701 146.253 93.034 147.64 91.58C147.91 91.1136 148.247 90.6891 148.64 90.32C148.99 89.63 150.13 89.06 150.64 88.32C151.15 87.58 151.1 86.32 151.79 85.56C152.098 85.2267 152.432 84.919 152.79 84.64C153.614 83.3758 154.052 81.899 154.05 80.39C154.061 78.946 153.529 77.5505 152.56 76.48C151.957 75.8372 151.227 75.3273 150.416 74.9829C149.605 74.6385 148.731 74.4672 147.85 74.48C144.667 74.6385 141.574 75.587 138.85 77.24C136.92 78.7431 135.147 80.4385 133.56 82.3C132.895 82.9112 132.313 83.6072 131.83 84.37C131.26 85.29 131.26 85.75 130.91 86.37C130.79 86.6 129.76 87.29 129.65 87.52C128.372 89.4833 127.363 91.6089 126.65 93.84C126.08 95.22 126.19 96.37 125.85 97.84C125.079 100.233 125.079 102.807 125.85 105.2C126.044 105.894 126.312 106.564 126.65 107.2C127.46 109.84 129.06 110.88 132.05 111.68C132.28 111.68 135.15 112.02 135.38 112.02C135.61 112.02 135.72 112.14 135.95 112.14C136.95 112.14 137.95 111.45 138.71 111.45C138.94 111.45 139.28 111.57 139.51 111.57C142.15 111.57 144.45 109.85 146.75 109.73C147.56 109.73 149.85 107.43 150.66 106.97C151.24 106.51 152.04 106.51 152.73 106.05C153.73 105.36 155.95 102.37 156.87 101.8C157.091 101.619 157.333 101.465 157.59 101.34C157.348 102.707 157.224 104.092 157.22 105.48C157.178 107.211 157.614 108.92 158.48 110.42C158.935 110.945 159.501 111.362 160.138 111.641C160.775 111.919 161.465 112.052 162.16 112.03C164.69 112.03 167.45 110.42 168.6 109.73C170.9 108.24 172.74 106.51 174.92 105.02C175.879 104.349 176.764 103.578 177.56 102.72C177.747 102.312 177.978 101.927 178.25 101.57C178.6 101.11 179.17 101.11 179.51 100.77C181.686 99.0532 183.653 97.0864 185.37 94.91C186.244 93.9334 187.049 92.8976 187.78 91.81H188.24C187.855 93.0937 187.548 94.3994 187.32 95.72C187.333 96.472 187.175 97.2172 186.86 97.9C186.554 98.7083 186.398 99.5657 186.4 100.43C186.4 101.58 185.4 102.27 185.4 103.53C185.4 106.53 181.4 118.47 181.03 119.62C180.57 121.11 180.57 121.34 180.03 122.95C179.048 123.408 178.003 123.718 176.93 123.87C172.123 125.148 167.457 126.903 163 129.11C161.393 129.623 159.82 130.238 158.29 130.95C157.37 131.29 155.99 132.44 155.19 132.67C154.562 133.197 154.019 133.818 153.58 134.51C152.798 134.808 151.991 135.039 151.17 135.2C150.25 135.77 149.33 137.04 148.41 137.5C147.03 138.5 145.41 138.99 144.04 140.14C142.66 141.06 140.71 142.9 139.1 143.93C136.103 146.245 133.415 148.933 131.1 151.93C130.3 152.85 130.1 153.93 129.1 154.8C127.654 156.634 126.457 158.652 125.54 160.8C124.27 163.67 124.04 165.51 123.93 169.07V169.76C123.807 172.459 124.663 175.112 126.34 177.23C128.64 180.1 132.55 181.02 135.42 181.14C136.082 181.237 136.751 181.277 137.42 181.26C138.036 181.274 138.651 181.234 139.26 181.14C140.75 181.02 141.33 180.14 142.94 179.99C146.04 179.64 150.18 179.19 153.63 177.12C161.79 172.29 166.28 168.04 171.91 160.57C172.37 159.88 172.14 159.19 172.48 158.27C172.568 157.992 172.686 157.724 172.83 157.47C173.06 157.01 174.09 156.78 174.55 156.09C174.78 155.74 174.55 155.52 174.9 155.29C175.474 154.962 176.014 154.577 176.51 154.14L181.68 143.8C182.37 142.88 182.26 141.96 182.68 140.8C182.91 140.34 183.49 139.88 183.83 139.31C184.75 137.24 184.75 137.59 185.55 135.52C186.35 133.45 188.42 128.39 189.11 126.33C190.445 125.902 191.853 125.746 193.25 125.87C196.375 125.809 199.475 126.437 202.33 127.71C203.02 128.06 203.02 129.55 203.71 130.01C204.104 130.417 204.635 130.663 205.2 130.7C205.738 130.645 206.252 130.448 206.69 130.13C206.884 129.935 207.036 129.702 207.135 129.445C207.235 129.189 207.281 128.915 207.27 128.64C207.159 127.552 206.671 126.536 205.89 125.77C205.2 125.08 203.25 123.36 202.21 123.36C201.75 123.24 200.71 123.48 200.21 122.9C198.038 122.308 195.79 122.039 193.54 122.1C192.39 122.1 190.78 122.22 189.98 122.22C190.56 120.15 191.48 116.22 192.39 113.49C192.588 112.733 192.741 111.965 192.85 111.19C192.913 110.013 193.145 108.851 193.54 107.74C194.77 104.12 195.54 100.58 196.54 96.36C196.62 96.36 197.02 96.07 197.11 96.07C197.92 96.07 198.16 95.5 199.5 94.98C202.03 92.22 204.33 89.92 206.63 87.17C207.09 86.6 207.43 86.25 207.78 86.25C208.13 86.25 208.01 86.37 208.13 86.6C208.13 87.52 206.52 90.05 205.72 91.89C204.57 94.3 204.11 96.6 202.96 99.13C201.617 102.062 200.836 105.22 200.66 108.44V109.44C200.89 111.44 203.19 112.89 205.37 112.89C206.194 112.874 207.008 112.718 207.78 112.43C208.13 112.43 208.78 112.66 209.04 112.66C209.244 112.615 209.44 112.537 209.62 112.43C211.8 111.17 212.49 109.67 214.91 108.18C216.52 107.18 218.13 105.42 219.74 104.27C220.74 103.47 221.58 102.2 222.74 101.4C223.54 100.71 224.12 100.71 224.92 99.91C225.5 99.34 225.84 98.53 226.53 98.07C228.098 96.9888 229.592 95.8027 231 94.52C231.045 94.4746 231.1 94.4402 231.161 94.4194C231.222 94.3986 231.286 94.392 231.35 94.4C231.58 94.4 231.7 94.52 231.7 94.86C231.586 95.5473 231.392 96.2186 231.12 96.86C230.47 98.7438 230.159 100.728 230.2 102.72C230.203 104.638 230.762 106.514 231.81 108.12C232.5 109.27 233.99 109.04 235.14 109.96C235.49 110.3 235.37 110.53 235.83 110.65C236.697 110.835 237.584 110.912 238.47 110.88C240.31 110.88 241.92 110.54 242.38 110.08C242.95 109.85 243.76 109.16 244.22 108.93C244.928 108.713 245.62 108.446 246.29 108.13C246.98 107.67 247.67 106.87 248.36 106.41L249.51 106.06C250.102 105.494 250.571 104.814 250.89 104.06C251.69 102.91 253.19 102.34 254.34 101.53C254.92 101.07 254.57 100.38 255.15 99.92C256.012 98.9825 256.967 98.1349 258 97.39C258.679 96.9178 259.232 96.286 259.61 95.55C259.74 95.4076 259.857 95.2536 259.96 95.09C260.131 95.0548 260.289 94.9755 260.42 94.86C261.23 94.28 261.42 93.6 262.49 92.45L264.9 90.27C265.7 89.58 266.39 88.43 267.43 87.4C268.47 86.37 268.93 84.99 269.43 84.64C270.7 83.72 271.04 83.15 271.43 83.03C271.54 83.03 271.66 83.15 271.77 83.15C271.43 84.87 269.59 86.94 268.77 90.05C268.42 90.74 268.65 91.66 268.31 92.58C267.16 95.22 266.01 98.44 264.98 100.85C264.64 101.54 264.87 102.46 264.64 103.03C263.72 104.75 263.38 103.83 262.23 108.78C262.12 109.24 262.12 110.39 262 110.85C262 112.11 264.07 112.57 265.1 112.57H265.67C267.17 112.22 270.04 112.11 270.84 111.88C272.1 111.42 272.22 109.12 272.84 107.74C272.944 107.487 272.985 107.212 272.96 106.94C272.932 106.629 272.97 106.316 273.07 106.02C273.19 105.68 273.88 105.33 274.07 105.02C275.07 103.64 275.33 101.92 276.6 100.31C278.192 97.8409 279.918 95.4607 281.77 93.18C282.46 92.61 282.69 91.8 283.27 91.34C283.61 90.88 284.19 90.77 284.65 90.34C284.778 90.1303 284.856 89.8944 284.88 89.65C284.88 89.54 284.99 89.19 286.14 88.16L286.94 86.55C287.553 85.9501 288.223 85.4109 288.94 84.94C289.94 84.14 289.86 83.56 290.94 82.53C291.597 82.0002 292.399 81.6797 293.24 81.61C293.93 81.61 294.85 82.76 294.85 84.37C294.85 87.13 293.7 89.31 293.59 92.64C293.48 95.05 293.48 96.43 293.48 97.58V101.26C293.461 102.261 293.498 103.263 293.59 104.26C293.59 104.61 294.16 105.18 294.28 105.52C294.372 105.738 294.41 105.975 294.39 106.21C294.39 106.67 294.28 107.13 294.28 107.47C294.318 107.746 294.396 108.016 294.51 108.27C295.06 109.45 295.939 110.446 297.04 111.14C297.73 111.6 300.72 111.94 302.1 111.94C303.486 111.709 304.832 111.285 306.1 110.68C306.44 110.56 306.9 109.99 307.25 109.88C308 109.542 308.728 109.158 309.43 108.73C311.27 107.555 312.933 106.124 314.37 104.48L315.86 103.22C316.55 102.42 318.04 101.04 319.42 99.54C319.65 99.31 319.88 98.62 320.11 98.39C320.34 98.16 320.91 97.93 321.26 97.59C321.4 97.47 321.61 97.28 321.84 97.06C321.445 98.7091 321.138 100.378 320.92 102.06C320.92 102.86 321.04 103.55 321.04 104.36C320.81 104.48 320.69 104.93 320.69 105.36C320.705 105.746 320.745 106.13 320.81 106.51C320.678 106.916 320.637 107.346 320.69 107.77C321.04 118.57 323.69 123.97 330.23 128.69C331.412 129.372 332.69 129.874 334.02 130.18C334.25 130.18 334.71 130.3 334.94 130.3C335.167 130.319 335.396 130.292 335.613 130.221C335.83 130.15 336.03 130.036 336.202 129.885C336.373 129.735 336.513 129.552 336.612 129.346C336.712 129.141 336.769 128.918 336.78 128.69C336.797 128.454 336.755 128.217 336.66 128C336.527 127.634 336.297 127.312 335.994 127.069C335.69 126.825 335.326 126.67 334.94 126.62C334.48 126.62 334.02 126.74 333.45 126.74C333.051 126.764 332.652 126.705 332.276 126.568C331.901 126.43 331.559 126.216 331.27 125.94C329.78 124.45 329.2 123.76 329.2 122.84C329.2 121.69 328.28 120.2 328.28 119.39C327.93 116.29 328.16 114.33 327.93 113.18C327.794 112.522 327.717 111.852 327.7 111.18C327.7 108.18 328.97 104.97 329.19 101.76C329.493 100.713 329.919 99.706 330.46 98.76C331.61 96.58 331.95 94.51 332.76 92.09C333.57 89.67 334.25 86.92 335.17 84.28C335.778 82.5836 336.507 80.9328 337.35 79.34C337.687 78.4915 337.919 77.6049 338.04 76.7L339.54 73.7C340 72.57 340 71 340.66 70C341.722 68.6411 342.575 67.1311 343.19 65.52C344.68 65.06 345.49 65.17 347.19 64.72C347.605 64.6172 348.033 64.5768 348.46 64.6H350.46C350.96 64.4394 351.477 64.3387 352 64.3C353.49 64.18 353 63.84 355.45 63.5C356.306 63.2128 357.192 63.0216 358.09 62.93C358.581 63.0374 359.079 63.1142 359.58 63.16C360.39 63.16 360.73 63.04 361.08 63.04C361.516 63.0899 361.941 63.208 362.34 63.39C362.932 63.3658 363.522 63.4824 364.06 63.73C364.52 63.96 364.75 64.31 365.21 64.53C365.374 64.6444 365.51 64.7931 365.611 64.9658C365.711 65.1386 365.772 65.3311 365.79 65.53C365.79 66.53 365.44 67.71 365.67 67.71C366.318 67.571 366.914 67.2521 367.39 66.79C368.54 65.53 369.23 65.41 369.46 62.88C369.46 60.24 366.13 59.43 363.6 59.2L363.66 59.24ZM178 127.62C177.577 129.428 176.903 131.168 176 132.79C174.919 136.423 173.535 139.959 171.86 143.36C171.388 144.05 171.074 144.835 170.94 145.66C170.59 146.46 169.56 147.5 169.33 148.42C169.202 148.74 169.125 149.077 169.1 149.42C167.694 152.409 165.831 155.162 163.58 157.58C163.35 157.81 163.12 157.93 163.01 158.16C162.09 159.42 160.71 161.84 159.45 162.87C158.99 163.21 158.76 163.87 158.19 164.36C157.39 165.05 156.81 166.36 155.89 167C155.369 167.265 154.87 167.572 154.4 167.92C151.64 170.22 150.61 170.68 149 171.92C145.234 174.921 140.594 176.617 135.78 176.75C134.576 176.832 133.37 176.636 132.253 176.179C131.137 175.721 130.14 175.013 129.34 174.11C128.19 172.96 127.85 170.89 127.85 168.48C127.832 167.079 128.027 165.682 128.43 164.34C130.15 159.86 130.15 159.28 132.57 155.95C133.57 154.69 135.21 152.95 135.44 152.16C135.67 151.37 137.51 150.9 138.31 149.98C139.12 149.4 139.12 148.37 139.69 147.91C141.69 146.42 143.6 144 145.9 142.62C147.352 141.5 148.89 140.497 150.5 139.62C153.72 137.78 156.94 135.48 159.5 133.87C160.411 133.419 161.376 133.083 162.37 132.87C164.333 131.808 166.368 130.886 168.46 130.11C169.96 129.11 171.46 129.11 173.29 128.62C173.75 128.5 174.44 127.7 175.13 127.62C175.47 127.62 176.39 127.96 176.62 127.96C176.85 127.96 177.62 127.62 178 127.62ZM136.7 92.91C136.7 90.5 137.5 90.61 138.31 89C139 87.74 138.77 86.7 139.8 85.78C140.26 85.32 140.95 84.98 141.41 84.52C141.64 84.17 141.53 83.6 141.87 83.26C142.79 82.68 143.25 82.91 144.63 81.77C145.55 81.08 145.78 80.51 146.63 79.77C147.48 79.03 147.78 78.85 148.35 78.85C148.7 78.85 148.93 78.85 149.04 78.97C149.243 79.1833 149.4 79.4367 149.5 79.7139C149.6 79.9911 149.641 80.2861 149.62 80.58C149.356 83.8325 147.878 86.8667 145.48 89.08C145.13 89.43 144.9 90 144.56 90.23C143.679 90.8912 142.714 91.4326 141.69 91.84C140.555 92.4227 139.361 92.8852 138.13 93.22C137.648 93.2305 137.172 93.1132 136.75 92.88L136.7 92.91ZM191 80.62C190.65 83.62 188.7 84.41 187.32 87.06C186.514 88.4617 185.464 89.708 184.22 90.74C183.87 91.08 183.99 91.74 183.41 92.74C182.83 93.74 181 95 180 96.13C179.77 96.36 179.08 96.25 178.85 96.47C178.764 96.7687 178.727 97.0794 178.74 97.39C178.16 98.31 176.74 98.65 176.21 99.39C175.86 99.74 175.98 100.19 175.75 100.54C175.4 101.23 174.03 101.54 173.45 102.15C172.53 102.72 171.95 104.15 170.92 104.79C169.31 105.71 168.51 106.86 166.55 106.86C166.283 106.874 166.018 106.804 165.793 106.661C165.567 106.517 165.391 106.307 165.29 106.06C165.188 105.648 165.148 105.224 165.17 104.8C165.17 102.96 165.98 101.8 167.01 99.97C168.04 98.14 167.93 96.64 169.01 94.68C169.36 94.11 170.73 93.19 171.19 92.61C171.676 91.5005 172.353 90.485 173.19 89.61C173.815 88.7872 174.507 88.0179 175.26 87.31C175.38 87.19 175.38 86.85 175.38 86.62C175.36 86.3845 175.398 86.1477 175.49 85.93C175.95 85.47 177.22 85.47 177.79 84.78C179.79 82.94 181.7 80.87 184 79.72C185.188 79.1602 186.477 78.8472 187.79 78.8C189.51 78.8 191.01 78.8 191.01 80.64L191 80.62ZM127.28 54.76C128.089 52.1611 128.589 49.4759 128.77 46.76C128.793 45.4524 128.52 44.1566 127.97 42.97C127.317 41.6918 126.463 40.527 125.44 39.52C123.868 38.5866 122.087 38.0639 120.26 38C116.47 38 111.52 39.49 109.11 41.56C108.53 42.02 108.65 42.25 108.19 42.82C107.96 43.17 107.27 43.05 107.04 43.17C104.696 44.6759 102.6 46.5383 100.83 48.69C99.8923 49.8927 98.8909 51.0444 97.83 52.14C97.37 52.6 97.25 53.75 96.83 54.14C96.26 54.71 95.22 54.94 94.76 55.63C94.07 56.89 90.62 60.92 90.28 62.18C89.7 63.1 89.59 64.02 88.9 64.71C88.21 65.4 85.11 70.71 83.96 71.71C82.35 74.12 81.09 75.62 80.4 77C80.17 77.34 79.02 79.3 78.56 79.3C78.44 79.3 78.44 79.18 78.44 78.95C78.44 78.15 78.9 78.49 78.9 77.23C78.8942 76.6384 79.0135 76.0523 79.25 75.51C79.3989 74.9838 79.6542 74.4937 80 74.07C80.46 73.15 80.23 72.46 80.8 71.54C81.03 70.85 82.07 69.93 82.07 69.24C82.1701 68.4006 82.2102 67.5551 82.19 66.71C82.31 64.99 84.37 62.92 84.6 61.08C84.6 60.39 84.26 59.7 84.26 59.01C84.26 58.9 84.37 58.67 84.37 58.55C84.49 57.98 85.52 57.63 85.64 57.17C85.87 56.17 89.2 48.32 89.32 45.45V44C89.44 42.74 90.47 40.78 90.47 36.3C90.47 33.3 87.37 30.44 84.47 29.06C83.4437 28.6634 82.3501 28.4698 81.25 28.49C79.1015 28.458 76.9636 28.7963 74.93 29.49C71.46 31.1874 68.2151 33.3104 65.27 35.81C63.89 36.73 63.09 38.34 61.82 39.6C61.02 40.52 59.29 40.98 59.06 42.13C58.83 43.51 56.99 43.85 56.06 45.23C55.26 46.23 51.69 50.17 51.35 51.67C51 52.67 50.54 52.36 49.86 53.28C48.59 55.12 44.8 60.63 43.31 62.36C41.31 64.66 40.78 66.04 39.17 67.99C39.63 66.84 40.09 66.15 40.66 64.54C41.23 62.93 41.12 61.32 41.66 59.83C41.78 59.49 42.66 58.83 42.81 58.57V56.27C42.93 55.7 43.73 54.55 43.81 53.74C44.62 50.41 44.16 46.39 45.07 43.28C45.4625 42.0553 45.6583 40.7761 45.65 39.49C45.6643 38.7614 45.6242 38.0327 45.53 37.31C45.53 37.08 45.41 36.74 45.41 36.51C45.1093 32.9597 43.9678 29.5319 42.08 26.51C39.9749 22.8846 36.5783 20.188 32.57 18.96C32.22 18.52 31.57 18.3 30.15 18.16L29.2 18.28H28.96C27.75 17.95 27.24 18.16 27.17 18.66C24.8198 19.1948 22.5335 19.9793 20.35 21C19.52 21.33 18.53 21.28 17.51 21.64C17.4 21.54 17.21 22.06 16.92 22.1C16.82 22.1 16.19 21.73 16.11 21.85C15.63 22.0476 15.1254 22.1788 14.61 22.24C14.32 22.24 10.35 23.33 10.35 23.33C6.69 24.73 8.78 23.21 6.42 24.33L3.42 25.63C2.83196 25.9228 2.2005 26.1186 1.55 26.21C0.942456 26.423 0.405897 26.8003 0 27.3C0.18 28 1 31 1.82 30.91C2.12 30.91 2.66 29.81 3.06 29.39C3.16942 29.3598 3.26707 29.297 3.34 29.21C4.20847 28.6919 5.13052 28.2695 6.09 27.95V27.85C6.90462 27.5414 7.74003 27.2908 8.59 27.1L13.94 25.35C15.13 24.74 14.03 26.17 15.41 25.54C16.3693 25.3183 17.341 25.1547 18.32 25.05L19.94 24.85C20.3429 24.6182 20.7775 24.4464 21.23 24.34C22.46 24.07 22.03 23.78 24 23.19C24.6703 22.8183 25.3864 22.5359 26.13 22.35C26.5508 22.408 26.9753 22.4347 27.4 22.43C28.07 22.35 28.34 22.2 28.63 22.16C28.9166 22.1497 29.2023 22.1973 29.47 22.3C29.857 22.7229 30.2676 23.1236 30.7 23.5C31.5 24.19 31.62 25.11 32.31 25.91C33 26.91 34.49 29.01 34.84 29.7C35.8418 31.6475 36.3533 33.8101 36.33 36C36.2961 37.5794 36.1423 39.1539 35.87 40.71C35.41 42.89 35.75 44.96 35.29 47.15C34.6 50.48 32.65 54.27 31.84 57.61C31.6219 58.5552 31.4682 59.514 31.38 60.48C30.58 63.48 28.74 66.69 27.47 69.67V71C27.1803 71.81 26.7942 72.5823 26.32 73.3C23.32 79.16 22.53 85.14 20.11 90.3C18.73 93.52 17.24 97.54 15.97 100.76C15.4 102.14 15.74 102.94 15.28 104.21C15.2514 104.383 15.1713 104.543 15.05 104.67C14.3322 106.182 13.9404 107.827 13.9 109.5C13.8636 110.083 13.9417 110.667 14.13 111.22C14.36 112.71 16.77 114.09 18.04 114.78C18.5862 115.143 19.2242 115.344 19.88 115.36C20.3946 115.34 20.9005 115.222 21.37 115.01C22.29 114.32 22.17 113.4 22.63 112.37C23.1927 111.37 23.6904 110.334 24.12 109.27C24.4676 108.707 24.702 108.082 24.81 107.43C24.81 106.63 25.61 106.17 26.3 104.43C26.3895 104.105 26.4266 103.767 26.41 103.43C26.3949 103.043 26.4319 102.657 26.52 102.28C27.21 100.44 28.24 98.95 29.28 96.42C29.85 95.27 29.62 94.12 30.28 93.09C30.51 92.63 30.74 92.52 31.2 92.17C31.7807 91.3791 32.2799 90.5314 32.69 89.64C32.6654 89.3283 32.7062 89.0149 32.81 88.72C33.04 88.15 33.81 87.57 34.08 87.11C34.54 85.96 34.31 85.27 34.77 83.89C35.3658 82.7968 36.0586 81.7593 36.84 80.79C37.3 79.99 37.19 79.07 37.84 78.26C38.53 77 40.02 76.08 40.84 74.7L41.19 73.44C41.88 72.06 42.8 71.26 43.49 69.99C44.18 69.19 43.84 68.15 44.64 67.81C45.5819 67.0673 46.396 66.1755 47.05 65.17C47.17 65.06 47.28 65.06 48.2 63.68C48.66 63.1 48.31 62.19 48.77 61.61C49.23 61.03 50.04 60.92 50.49 60.46C50.94 60 50.84 59.31 51.3 58.97C51.6332 58.7777 51.9421 58.546 52.22 58.28C53.94 56.56 54.63 54.28 56.36 52.53C56.82 51.96 57.05 51.04 57.51 50.69C57.97 50.34 57.97 49.77 58.51 49.2C59.05 48.63 60 48.28 60.51 47.48C60.74 47.14 60.63 46.68 60.97 46.22C61.66 44.96 63.38 44.15 64.19 42.77C65.11 40.7 68.1 39.32 70.05 37.94C70.28 37.71 70.4 37.25 70.74 37.02C71.3785 36.7424 72.0511 36.5507 72.74 36.45C73.32 36.22 73.74 35.19 74.35 34.84C75.2617 34.2349 76.2796 33.8074 77.35 33.58C77.6088 33.4846 77.8846 33.4437 78.16 33.46C78.4948 33.4605 78.8229 33.5543 79.1073 33.7309C79.3917 33.9076 79.6212 34.1601 79.77 34.46C80.1213 35.1735 80.2798 35.9663 80.23 36.76C80.113 38.2942 79.7307 39.7965 79.1 41.2C78.64 42.35 78.18 46.83 76.57 50.74L74.5 55.57C73.01 59.71 71.63 64.42 70.5 68.57C70.27 69.37 70.38 70.18 70.15 71.1C69.46 73.51 68.66 73.1 67.05 78.34C66.05 81.44 64.98 84.66 64.18 87.53C63.7189 88.8052 63.3251 90.1036 63 91.42C63 91.53 62.88 91.65 62.88 91.76C62.08 94.86 61.27 98.08 60.24 101.18C59.289 103.743 58.6185 106.402 58.24 109.11V110.11C58.1541 110.816 58.2747 111.532 58.587 112.171C58.8994 112.809 59.3902 113.344 60 113.71C61.6097 114.808 63.4637 115.494 65.4 115.71C66.058 115.742 66.7082 115.557 67.2504 115.183C67.7926 114.809 68.1966 114.267 68.4 113.64C68.75 112.15 69.67 110.08 70.24 107.43C70.6045 106.383 70.8756 105.305 71.05 104.21C71.05 102.49 72.89 100.76 73.58 99.15C74.16 98 74.5 95.59 75.42 94.67C76.23 93.41 76.34 91.8 77.14 90.53C77.49 90.07 78.52 89.53 78.75 88.92C79.0234 88.4739 79.1428 87.9505 79.09 87.43C79.09 86.51 79.78 86.28 80.09 85.59C80.139 85.0798 80.2568 84.5787 80.44 84.1C80.67 83.75 81.13 83.64 81.36 83.41C82.05 82.61 81.94 81.69 82.51 80.88C83.32 79.62 84.92 78.47 85.73 77.2C86.42 76.2 86.88 75.2 87.45 74.2C87.68 73.74 88.45 73.2 88.83 72.59C88.8908 71.9674 89.0079 71.3515 89.18 70.75C89.53 69.83 91.36 69.14 91.82 68.22C92.0481 67.5535 92.1663 66.8544 92.17 66.15L93.17 65.92C93.75 65 93.75 64.08 94.44 63.05C95.9241 61.9787 97.1759 60.618 98.12 59.05C98.69 58.13 98.92 57.05 99.73 56.41C100.19 56.07 100.73 55.95 101.11 55.49C101.49 55.03 101.34 54.49 101.8 53.88C102.6 52.96 103.87 52.5 104.8 51.7C105.73 50.9 105.61 50.55 106.8 49.52L109.21 47.34C111.28 45.5 112.66 44.34 114.73 44.24C115.88 44.24 116.45 44.59 116.73 45.04C116.927 45.5526 117.005 46.1029 116.96 46.65C116.96 48.37 115.7 51.59 114.96 53.77C114.73 54.57 114.84 55.26 114.61 55.95C114.49 56.29 113.69 56.95 113.61 57.21L112.91 60C111.91 62.76 110.5 66.21 109.58 69.19C108.09 74.36 106.36 80.45 104.98 87.69C103.948 92.7293 103.406 97.8564 103.36 103C103.36 108.17 104.05 113.11 106 116.79C107.95 120.47 110.14 123.23 111.06 123.79C111.41 124.02 111.41 124.48 111.64 124.71C113.02 125.63 117.27 127.12 121.18 127.93C122.957 128.296 124.766 128.487 126.58 128.5C127.119 128.522 127.66 128.481 128.19 128.38C130.128 128.297 132.053 128.03 133.94 127.58C136.01 127 139.46 125.97 141.07 124.48C141.694 123.745 142.022 122.804 141.99 121.84C141.872 121.542 141.667 121.287 141.401 121.108C141.135 120.929 140.82 120.836 140.5 120.84C138.89 120.84 138.66 122.33 137.17 123.14C134.658 124.511 131.869 125.298 129.01 125.44C127.035 125.356 125.089 124.929 123.26 124.18C123.14 124.06 122.8 124.06 122.45 124.06C122.1 124.06 121.76 124.18 121.3 124.18C120.61 123.6 120.72 123.03 119.81 122.69C119.12 122.46 114.98 117.52 114.98 116.94C114.958 116.401 114.999 115.86 115.1 115.33C115.1 113.84 113.72 112 113.72 110.5C113.72 109.58 113.84 108.66 113.84 107.74C113.96 103.14 113.72 96.82 114.84 93.15C115.3 91.89 115.19 90.05 115.76 89.01C115.76 88.78 116.56 88.32 116.68 88.01C117.126 85.9297 117.397 83.8156 117.49 81.69C117.49 81 117.26 80.2 117.26 79.51C117.253 79.0651 117.375 78.6278 117.61 78.25C117.96 77.68 118.87 77.68 119.22 77.33C119.447 77.0531 119.615 76.7331 119.715 76.3894C119.814 76.0456 119.843 75.6853 119.8 75.33C119.8 74.64 119.68 73.95 119.68 73.26C119.623 72.6502 119.787 72.0402 120.14 71.54C120.49 71.19 121.06 71.08 121.41 70.62C121.98 69.82 121.64 68.62 121.87 67.75C122.149 67.3105 122.456 66.8896 122.79 66.49C123.639 65.2274 124.262 63.8265 124.63 62.35V60.74C124.63 60.05 126.01 59.02 126.01 58.56C126.01 58.1 125.89 57.87 125.89 57.56C125.873 57.3623 125.914 57.1639 126.01 56.99C126.473 56.2888 126.893 55.5609 127.27 54.81L127.28 54.76Z" fill="#323232"/>
</g>
<defs>
<clipPath id="clip0_108_1284">
<rect width="591.79" height="193.99" fill="white"/>
</clipPath>
</defs>
</svg>
