<svg width="601" height="122" viewBox="0 0 601 122" fill="none" xmlns="http://www.w3.org/2000/svg">
<path d="M26.8 3H0.300003V119.3H26.8V3Z" fill="#0076A8"/>
<path d="M146.6 101.3C135.8 113.8 119.8 122.4 97.3 121.4C63.3 120 38.1 94.0999 38.1 60.8999V60.5999C38.1 27.7999 62.8 0.899902 98.3 0.899902C120.1 0.899902 133.1 8.19992 143.8 18.6999L127.6 37.2999C118.7 29.1999 109.6 24.2999 98.1 24.2999C78.6 24.2999 64.6 40.4999 64.6 60.2999V60.5999C64.6 80.3999 78.4 98.4999 98.2 98.4999C111.9 99.7999 121.5 95.2999 128.7 87.3999C128.7 87.3999 134.6 81.4999 141.4 67.9999C142.1 66.6999 146.1 58.2999 146.1 58.2999L170.4 2.7999H193.8L243.4 119.3H216.8L205.9 87.7999H157.1C154 92.9999 146.6 101.3 146.6 101.3ZM196.9 67.6999L181.6 32.4999L166.3 67.6999H196.9Z" fill="#0076A8"/>
<path d="M286.7 61.7001V61.6001C286.7 49.5001 295.8 39.6001 308.7 39.6001C316.6 39.6001 321.3 42.3001 325.4 46.2001L320.6 51.7001C317.2 48.5001 313.5 46.4001 308.7 46.4001C300.6 46.4001 294.6 53.1001 294.6 61.4001V61.5001C294.6 69.8001 300.5 76.6001 308.7 76.6001C313.9 76.6001 317.3 74.5001 320.9 71.1001L325.7 76.0001C321.3 80.6001 316.4 83.6001 308.4 83.6001C295.9 83.6001 286.7 73.9001 286.7 61.7001Z" fill="#0076A8"/>
<path d="M344.8 39.9001H351.7L370.4 82.8001H362.5L358.2 72.5002H338.1L333.7 82.8001H326L344.8 39.9001ZM355.6 65.9001L348.2 48.9001L340.9 65.9001H355.6Z" fill="#0076A8"/>
<path d="M378.6 47.1002H365.1V40.2002H399.6V47.1002H386.1V82.8002H378.6V47.1002Z" fill="#0076A8"/>
<path d="M405.9 40.2002H437.4V46.9002H413.3V58.0002H434.7V64.7002H413.3V76.1002H437.8V82.8002H405.9V40.2002Z" fill="#0076A8"/>
<path d="M445.9 40.3H464.9C470.3 40.3 474.4 41.9001 477.2 44.6001C479.5 46.9001 480.7 50.1 480.7 53.8V53.9001C480.7 60.9001 476.5 65.1 470.6 66.8L482.1 82.9001H473.2L462.7 68.0001H453.3V82.8H445.8V40.3H445.9ZM464.3 61.4001C469.7 61.4001 473.1 58.6 473.1 54.3V54.2001C473.1 49.6001 469.8 47.1001 464.3 47.1001H453.4V61.4001H464.3Z" fill="#0076A8"/>
<path d="M488.5 40.3H520V47.0001H496V58.0001H517.3V64.7001H496V76.2001H520.4V82.9001H488.5V40.3Z" fill="#0076A8"/>
<path d="M528.4 40.3H547.4C552.8 40.3 557 41.9001 559.7 44.6001C562 46.9001 563.2 50.1 563.2 53.8V53.9001C563.2 60.9001 559 65.1 553.1 66.8L564.6 82.9001H555.7L545.3 68.0001H535.9V82.8H528.4V40.3ZM546.8 61.4001C552.2 61.4001 555.6 58.6 555.6 54.3V54.2001C555.6 49.6001 552.3 47.1001 546.8 47.1001H535.9V61.4001H546.8Z" fill="#0076A8"/>
<path d="M567.3 76.6001L571.8 71.2001C575.9 74.7001 580 76.7001 585.3 76.7001C589.9 76.7001 592.8 74.5001 592.8 71.3001V71.2001C592.8 68.2001 591.1 66.5001 583.2 64.7001C574.1 62.5001 569 59.8001 569 52.0001C569 44.7001 575.1 39.6001 583.5 39.6001C589.7 39.6001 594.6 41.5001 599 45.0001L595 50.7001C591.2 47.8001 587.3 46.3001 583.4 46.3001C579 46.3001 576.5 48.6001 576.5 51.3001V51.4001C576.5 54.7001 578.4 56.1001 586.7 58.1001C595.7 60.3001 600.3 63.5001 600.3 70.6001V70.7001C600.3 78.7001 594 83.4001 585.1 83.4001C578.6 83.5001 572.4 81.2001 567.3 76.6001Z" fill="#0076A8"/>
<path d="M300.4 100.5H305.5L313.7 119.4H308L306.6 116H299.2L297.8 119.4H292.2L300.4 100.5ZM305.1 111.9L303 106.6L300.8 111.9H305.1Z" fill="#1E397F"/>
<path d="M325.3 116.6L328.3 113.2C330.2 114.7 332.3 115.4 334.5 115.4C336 115.4 336.7 114.9 336.7 114.1V114C336.7 113.2 336.1 112.8 333.4 112.2C329.3 111.3 326.2 110.2 326.2 106.3V106.2C326.2 102.7 329 100.2 333.6 100.2C336.9 100.2 339.4 101.1 341.5 102.7L338.8 106.4C337 105.2 335.1 104.5 333.4 104.5C332.1 104.5 331.5 105 331.5 105.7V105.8C331.5 106.7 332.2 107 334.8 107.6C339.2 108.5 341.9 109.9 341.9 113.4V113.5C341.9 117.3 338.8 119.6 334.1 119.6C330.9 119.7 327.7 118.6 325.3 116.6Z" fill="#1E397F"/>
<path d="M354.3 116.6L357.3 113.2C359.2 114.7 361.3 115.4 363.5 115.4C365 115.4 365.7 114.9 365.7 114.1V114C365.7 113.2 365.1 112.8 362.4 112.2C358.3 111.3 355.2 110.2 355.2 106.3V106.2C355.2 102.7 358 100.2 362.6 100.2C365.9 100.2 368.4 101.1 370.5 102.7L367.8 106.4C366 105.2 364.1 104.5 362.4 104.5C361.1 104.5 360.5 105 360.5 105.7V105.8C360.5 106.7 361.2 107 363.8 107.6C368.2 108.5 370.9 109.9 370.9 113.4V113.5C370.9 117.3 367.8 119.6 363.2 119.6C359.9 119.7 356.7 118.6 354.3 116.6Z" fill="#1E397F"/>
<path d="M383.3 110C383.3 104.6 387.7 100.2 393.7 100.2C399.6 100.2 404 104.5 404 109.9V110C404 115.4 399.6 119.7 393.6 119.7C387.7 119.7 383.3 115.4 383.3 110ZM398.5 110C398.5 107.2 396.5 104.9 393.6 104.9C390.7 104.9 388.7 107.2 388.7 109.9V110C388.7 112.7 390.7 115.1 393.6 115.1C396.6 115 398.5 112.7 398.5 110Z" fill="#1E397F"/>
<path d="M415.8 110C415.8 104.5 420.1 100.2 425.9 100.2C429.8 100.2 432.3 101.8 434 104.1L430 107.1C428.9 105.8 427.6 104.9 425.8 104.9C423.1 104.9 421.2 107.1 421.2 109.9V110C421.2 112.8 423.1 115 425.8 115C427.8 115 429 114.1 430.1 112.7L434.1 115.5C432.3 117.9 429.9 119.7 425.6 119.7C420.2 119.7 415.8 115.6 415.8 110Z" fill="#1E397F"/>
<path d="M453.3 100.6H448V119.3H453.3V100.6Z" fill="#1E397F"/>
<path d="M473.3 100.5H478.4L486.6 119.4H480.9L479.5 116H472.1L470.7 119.4H465.1L473.3 100.5ZM477.9 111.9L475.8 106.6L473.6 111.9H477.9Z" fill="#1E397F"/>
<path d="M501.2 105.2H495.5V100.6H512.3V105.2H506.5V119.4H501.2V105.2Z" fill="#1E397F"/>
<path d="M531.5 100.6H526.2V119.3H531.5V100.6Z" fill="#1E397F"/>
<path d="M545.3 110C545.3 104.6 549.7 100.2 555.7 100.2C561.6 100.2 566 104.5 566 109.9V110C566 115.4 561.6 119.7 555.6 119.7C549.6 119.7 545.3 115.4 545.3 110ZM560.5 110C560.5 107.2 558.5 104.9 555.6 104.9C552.7 104.9 550.7 107.2 550.7 109.9V110C550.7 112.7 552.7 115.1 555.6 115.1C558.5 115 560.5 112.7 560.5 110Z" fill="#1E397F"/>
<path d="M578.4 100.6H583.4L591.3 110.5V100.6H596.5V119.4H591.9L583.7 109.1V119.4H578.4V100.6Z" fill="#1E397F"/>
<path d="M297.8 2.90015H292.5V22.4001H297.8V2.90015Z" fill="#1E397F"/>
<path d="M307.9 2.90015H312.9L320.8 13.3001V2.90015H326V22.5002H321.4L313.2 11.8001V22.5002H307.9V2.90015Z" fill="#1E397F"/>
<path d="M340.2 7.70016H334.5V2.90015H351.3V7.70016H345.5V22.5002H340.2V7.70016Z" fill="#1E397F"/>
<path d="M360.2 2.90015H375.6V7.50015H365.5V10.5002H374.7V14.8001H365.5V17.9001H375.8V22.5002H360.2V2.90015Z" fill="#1E397F"/>
<path d="M385.1 2.90015H394.2C397.1 2.90015 399.2 3.70015 400.4 5.00015C401.5 6.10015 402.1 7.60015 402.1 9.50015V9.60016C402.1 12.6002 400.5 14.6002 398.2 15.6002L402.8 22.4001H396.7L392.8 16.5002H390.4V22.4001H385.1V2.90015ZM394 12.3001C395.8 12.3001 396.8 11.4002 396.8 10.0002V9.90015C396.8 8.30015 395.7 7.60016 393.9 7.60016H390.4V12.3001H394Z" fill="#1E397F"/>
<path d="M411.4 2.90015H416.4L424.3 13.3001V2.90015H429.6V22.5002H424.9L416.7 11.8001V22.5002H411.4V2.90015Z" fill="#1E397F"/>
<path d="M444 2.80005H449.1L457.3 22.5001H451.6L450.2 19.0001H442.8L441.4 22.5001H435.8L444 2.80005ZM448.7 14.7001L446.6 9.20007L444.4 14.7001H448.7Z" fill="#1E397F"/>
<path d="M467.1 7.60016H461.4V2.90015H478.1V7.60016H472.4V22.4001H467.1V7.60016Z" fill="#1E397F"/>
<path d="M491.5 2.90015H486.2V22.4001H491.5V2.90015Z" fill="#1E397F"/>
<path d="M500 12.8001C500 7.10008 504.4 2.6001 510.4 2.6001C516.3 2.6001 520.7 7.1001 520.7 12.7001V12.8001C520.7 18.4001 516.3 23.0001 510.3 23.0001C504.3 22.9001 500 18.4001 500 12.8001ZM515.2 12.8001C515.2 9.90008 513.2 7.50009 510.3 7.50009C507.4 7.50009 505.4 9.9001 505.4 12.7001V12.8001C505.4 15.6001 507.4 18.1001 510.3 18.1001C513.2 18.0001 515.2 15.6001 515.2 12.8001Z" fill="#1E397F"/>
<path d="M528.9 2.90015H533.8L541.7 13.3001V2.90015H547V22.5002H542.4L534.1 11.8001V22.5002H528.9V2.90015Z" fill="#1E397F"/>
<path d="M561.4 2.80005H566.5L574.7 22.5001H569L567.6 19.0001H560.2L558.8 22.5001H553.2L561.4 2.80005ZM566.1 14.7001L564 9.20007L561.8 14.7001H566.1Z" fill="#1E397F"/>
<path d="M582.1 2.90015H587.4V17.7002H596.7V22.5002H582.1V2.90015Z" fill="#1E397F"/>
<path d="M268.1 3H259.2V119.4H268.1V3Z" fill="#84BD00"/>
</svg>
